<?xml version="1.0" encoding="UTF-8" standalone="no"?>
<svg
   width="512"
   height="512"
   viewBox="0 0 512 512"
   version="1.1"
   id="mucklet-logo"
   xmlns="http://www.w3.org/2000/svg"
   xmlns:svg="http://www.w3.org/2000/svg">
  <path
     id="blue"
     style="fill:#4a9fc3"
     d="m 329.81132,17.161042 a 5.9368533,5.9368533 0 0 0 -4.83067,9.800925 l 74.35903,86.338223 a 41.830517,41.830517 0 0 0 52.95818,8.72891 20.338204,20.338204 0 0 0 -0.4188,-35.126352 L 332.4479,17.945958 a 5.9368533,5.9368533 0 0 0 -2.63658,-0.784916 z M 479.54607,149.91472 a 19.974798,19.974798 0 0 0 -10.00901,2.77355 42.449871,42.449871 0 0 0 -18.25591,50.60081 l 36.88847,106.01646 a 5.9125468,5.9125468 0 0 0 11.49718,-1.94386 V 169.89059 a 19.974798,19.974798 0 0 0 -20.12073,-19.97587 z m -69.80756,76.90342 a 16.011548,16.011548 0 0 0 -12.76939,7.9677 l -88.90106,153.98067 a 15.894879,15.894879 0 0 0 16.83358,23.54488 l 117.17913,-23.05496 a 30.380707,30.380707 0 0 0 22.82844,-39.79107 L 425.95837,237.52778 a 16.011548,16.011548 0 0 0 -16.21986,-10.70964 z m 10.55423,202.92736 a 5.8134766,5.8134766 0 0 0 -2.0334,0.0369 l -110.34932,21.71164 a 42.536544,42.536544 0 0 0 -34.32562,41.73493 19.689064,19.689064 0 0 0 30.29568,15.65619 l 118.40657,-68.36152 a 5.8134766,5.8134766 0 0 0 -1.99391,-10.77812 z m -326.55177,0.0369 a 5.8134766,5.8134766 0 0 0 -4.029937,10.74124 L 208.12022,508.88516 A 20.197639,20.197639 0 0 0 238.4159,491.3931 41.430557,41.430557 0 0 0 204.09028,451.49404 Z" />
  <path
     id="yellow"
     style="fill:#c1a657"
     d="M 252.30735,17.018808 A 30.128221,30.128221 0 0 0 233.17171,27.259603 L 154.73533,118.3363 a 16.040504,16.040504 0 0 0 12.15305,26.50807 H 345.10929 A 16.040504,16.040504 0 0 0 357.26497,118.3363 L 278.8286,27.259603 A 30.128221,30.128221 0 0 0 252.30735,17.018808 Z M 181.4989,17.24006 a 5.9368531,5.9368531 0 0 0 -1.9465,0.705898 L 60.118608,86.902748 a 20.421886,20.421886 0 0 0 -0.168573,35.271212 41.65831,41.65831 0 0 0 52.710595,-8.87377 L 187.01965,26.961967 A 5.9368531,5.9368531 0 0 0 181.4989,17.24006 Z M 33.270763,149.85151 a 19.852428,19.852428 0 0 0 -20.937264,20.03908 v 137.47109 a 5.9125471,5.9125471 0 0 0 11.497189,1.94386 l 36.88846,-106.01646 a 42.713513,42.713513 0 0 0 -18.629923,-50.82206 19.852428,19.852428 0 0 0 -8.818462,-2.61551 z m 125.723677,30.15872 a 20.1977,20.1977 0 0 0 -17.49206,30.29832 l 97.00572,168.01699 a 20.197703,20.197703 0 0 0 34.98411,0 L 370.49793,210.30855 A 20.1977,20.1977 0 0 0 353.00587,180.01023 Z M 102.2618,226.81814 A 16.011548,16.011548 0 0 0 86.041939,237.52778 L 47.091094,349.46536 a 30.380706,30.380706 0 0 0 22.828439,39.79107 l 117.179137,23.05496 a 15.894879,15.894879 0 0 0 16.83357,-23.54488 L 115.02855,234.78584 a 16.011548,16.011548 0 0 0 -12.76675,-7.9677 z" />
</svg>
