<?xml version="1.0" encoding="UTF-8" standalone="no"?>
<svg
   width="512"
   height="512"
   viewBox="0 0 512 512"
   version="1.1"
   id="mucklet-logo-plain"
   xmlns="http://www.w3.org/2000/svg"
   xmlns:svg="http://www.w3.org/2000/svg">
  <path
     id="yellow"
     style="fill:#c1a657"
     d="m 252.30859,17.021484 a 30.128126,30.128126 0 0 0 -19.13671,10.240235 l -78.43555,91.074221 a 16.040453,16.040453 0 0 0 12.15429,26.50781 h 178.21876 a 16.040453,16.040453 0 0 0 12.15624,-26.50781 L 278.82812,27.261719 A 30.128126,30.128126 0 0 0 252.30859,17.021484 Z m 77.50391,0.138672 a 5.9368345,5.9368345 0 0 0 -4.83203,9.802735 l 74.35937,86.337889 a 41.830385,41.830385 0 0 0 52.95704,8.72656 20.33814,20.33814 0 0 0 -0.41797,-35.124996 L 332.44727,17.947266 a 5.9368345,5.9368345 0 0 0 -2.63477,-0.78711 z m -148.31445,0.08008 a 5.9368343,5.9368343 0 0 0 -1.94532,0.707032 L 60.121094,86.902344 a 20.421822,20.421822 0 0 0 -0.169922,35.271486 41.658178,41.658178 0 0 0 52.708988,-8.87305 l 74.35937,-86.337889 a 5.9368343,5.9368343 0 0 0 -5.52148,-9.722657 z M 33.273438,149.85156 a 19.852366,19.852366 0 0 0 -20.9375,20.03906 v 137.47071 a 5.9125284,5.9125284 0 0 0 11.496093,1.94336 L 60.720703,203.28906 a 42.713378,42.713378 0 0 0 -18.630859,-50.82031 19.852366,19.852366 0 0 0 -8.816406,-2.61719 z m 446.273442,0.0645 a 19.974735,19.974735 0 0 0 -10.00977,2.77148 42.449737,42.449737 0 0 0 -18.25781,50.60156 l 36.88867,106.01563 a 5.9125281,5.9125281 0 0 0 11.49609,-1.94336 V 169.89062 a 19.974735,19.974735 0 0 0 -20.11718,-19.9746 z m -320.55079,30.0957 a 20.197637,20.197637 0 0 0 -17.49218,30.29492 l 97.0039,168.01758 a 20.197639,20.197639 0 0 0 34.98438,0 l 97.0039,-168.01758 a 20.197637,20.197637 0 0 0 -17.49218,-30.29492 z m -56.73242,46.80469 A 16.011498,16.011498 0 0 0 86.041016,237.5293 L 47.091797,349.46289 a 30.38061,30.38061 0 0 0 22.830078,39.79492 l 117.175785,23.05274 a 15.894828,15.894828 0 0 0 16.83398,-23.54297 L 115.0293,234.78516 a 16.011498,16.011498 0 0 0 -12.76563,-7.96875 z m 307.47266,0 a 16.011498,16.011498 0 0 0 -12.76563,7.96875 l -88.90234,153.98242 a 15.894828,15.894828 0 0 0 16.83398,23.54297 L 442.07812,389.25781 A 30.380611,30.380611 0 0 0 464.9082,349.46289 L 425.95898,237.5293 a 16.011498,16.011498 0 0 0 -16.22265,-10.71289 z m 10.55469,202.92968 a 5.8134582,5.8134582 0 0 0 -2.03321,0.0371 L 307.9082,451.49219 a 42.536409,42.536409 0 0 0 -34.32422,41.73633 19.689002,19.689002 0 0 0 30.29493,15.65625 l 118.4082,-68.36329 a 5.8134582,5.8134582 0 0 0 -1.99609,-10.77539 z m -326.548832,0.0371 a 5.8134582,5.8134582 0 0 0 -4.029297,10.73828 L 208.12109,508.8848 a 20.197575,20.197575 0 0 0 30.29493,-17.49219 41.430426,41.430426 0 0 0 -34.32422,-39.90039 z" />
</svg>
