<?xml version="1.0" encoding="UTF-8" standalone="no"?>
<!-- Created with Inkscape (http://www.inkscape.org/) -->

<svg
   width="200mm"
   height="200mm"
   version="1.1"
   viewBox="0 0 200 199.99999"
   id="svg6"
	style="background:#252a40"
   xmlns="http://www.w3.org/2000/svg"
   xmlns:svg="http://www.w3.org/2000/svg">
  <defs
     id="defs10" />
  <rect
     width="100%"
     height="100%"
     fill="#252a40"
     id="rect4"
     x="0"
     y="0" />
  <g
     transform="translate(-6.6360058,-121.20953)"
     id="g4">
    <path
       d="m 80.72,288.52 c -0.11556,-0.11556 -1.6197,-0.32687 -3.3425,-0.46958 -1.7228,-0.14271 -3.6635,-0.52441 -4.3126,-0.84823 -0.6491,-0.32381 -1.3335,-0.58875 -1.5208,-0.58875 -0.5084,0 -4.1644,-2.28 -5.3742,-3.3515 -0.58077,-0.51438 -1.4094,-1.1772 -1.8414,-1.4728 -0.43199,-0.29566 -1.0056,-0.95833 -1.2746,-1.4726 -0.26904,-0.51426 -0.9122,-1.6727 -1.4293,-2.5743 -2.3575,-4.1109 -2.7129,-11.13 -0.78336,-15.47 0.82082,-1.8463 3.4145,-4.855 5.4878,-6.3659 3.2459,-2.3654 4.7588,-3.2162 10.25,-5.764 3.4517,-1.6015 4.8693,-2.7303 13.616,-10.843 1.58,-1.4653 2.8273,-3.0644 3.7869,-4.8548 1.8296,-3.4137 4.1656,-5.5921 7.5329,-7.0248 2.6109,-1.1109 7.8416,-1.1109 10.453,0 3.3674,1.4327 5.7033,3.6111 7.533,7.0248 0.95961,1.7904 2.2069,3.3895 3.7869,4.8548 8.7471,8.1124 10.165,9.2412 13.616,10.843 3.7924,1.7596 4.8575,2.2922 6.428,3.2144 3.2619,1.9154 6,4.1495 7.4482,6.0774 2.4694,3.2871 3.0571,5.1058 3.0571,9.4606 0,3.6861 -0.62739,6.4915 -1.9788,8.848 -0.51706,0.90163 -1.1602,2.0601 -1.4293,2.5743 -0.26904,0.51425 -0.8426,1.1769 -1.2746,1.4726 -0.43199,0.29567 -1.2606,0.95844 -1.8414,1.4728 -1.2098,1.0716 -4.8658,3.3515 -5.3742,3.3515 -0.18734,0 -0.87502,0.26659 -1.5282,0.59243 -0.65318,0.32584 -2.4635,0.70605 -4.023,0.84492 -1.5595,0.13887 -3.3315,0.3644 -3.9378,0.50118 -0.69663,0.15715 -3.1639,-0.1214 -6.7028,-0.75673 -5.5116,-0.98948 -5.8128,-1.0054 -19.006,-1.0054 -13.086,0 -13.534,0.0231 -18.781,0.97013 -5.4728,0.98777 -6.8669,1.1341 -7.241,0.76004 z M 57.706,251.717 c -2.6885,-0.33105 -4.5712,-1.2262 -5.5303,-2.6295 -0.41467,-0.60666 -1.264,-1.6586 -1.8874,-2.3378 -1.5168,-1.6523 -3.0158,-4.505 -4.3695,-8.3156 -1.0636,-2.9938 -1.1252,-3.4592 -1.3052,-9.8488 -0.17598,-6.2463 1.66e-4,-9.1514 0.86938,-14.338 0.30016,-1.7912 0.6275,-2.7357 1.9398,-5.5972 0.68883,-1.502 2.4198,-2.7575 4.9026,-3.5559 3.7362,-1.2013 6.298,-0.28134 9.9261,3.5646 2.2371,2.3714 5.5979,8.3119 7.4651,13.195 0.45048,1.1781 1.2662,3.0151 1.8126,4.0823 0.92842,1.813 1.0016,2.271 1.1152,6.9834 0.13493,5.595 -0.27135,8.7216 -1.4906,11.471 -0.88085,1.9864 -2.9041,4.0416 -4.719,4.7933 -0.62917,0.2606 -1.1439,0.60251 -1.1439,0.75979 0,0.15727 -0.44816,0.60507 -0.9959,0.9951 -1.1841,0.84318 -3.6738,1.1373 -6.5888,0.77836 z m 93.235,0.0821 c -0.52608,-0.0851 -1.4683,-0.63272 -2.0938,-1.217 -0.62549,-0.5843 -1.7032,-1.3542 -2.3949,-1.7109 -4.2325,-2.1825 -5.8348,-6.7366 -5.6126,-15.952 0.11363,-4.7124 0.18676,-5.1704 1.1152,-6.9834 0.54646,-1.0672 1.3621,-2.9042 1.8126,-4.0823 1.8672,-4.8833 5.228,-10.824 7.4651,-13.195 3.6281,-3.8459 6.1899,-4.7659 9.9261,-3.5646 2.4828,0.79833 4.2138,2.0538 4.9026,3.5559 1.3123,2.8615 1.6396,3.806 1.9398,5.5972 0.86921,5.187 1.0454,8.0921 0.86937,14.338 -0.18001,6.3896 -0.24168,6.8549 -1.3052,9.8488 -1.7789,5.0074 -3.0234,7.0281 -6.986,11.343 -0.59592,0.64887 -1.6223,1.2467 -2.5469,1.4835 -1.8113,0.46386 -5.7185,0.76069 -7.0914,0.53873 z M 86.81,219.4741 c -1.2612,-0.24098 -3.0522,-0.82138 -3.9801,-1.2898 -1.8105,-0.91397 -4.9117,-4.0172 -6.4268,-6.4311 -0.19403,-0.30912 -0.86888,-1.3008 -1.4997,-2.2038 -2.1689,-3.1048 -2.472,-3.9132 -3.4463,-9.1901 -0.57134,-3.0944 -0.64921,-8.8731 -0.15687,-11.642 0.17251,-0.97014 0.40876,-2.3195 0.52498,-2.9986 0.89005,-5.2006 1.383,-7.4913 1.9738,-9.1722 0.72022,-2.0492 1.4117,-3.587 1.7449,-3.8806 0.11013,-0.097 0.69671,-0.9063 1.3035,-1.7984 1.9747,-2.9032 4.4592,-3.8967 7.9443,-3.1769 3.8228,0.78958 5.116,1.7434 7.7261,5.6987 1.4988,2.2713 1.9325,3.19 3.6548,7.7433 0.69725,1.8433 1.5611,4.0658 1.9197,4.9389 2.846,6.9302 3.5166,8.7791 3.5249,9.719 0.005,0.59178 0.17877,1.2452 0.38561,1.452 0.24631,0.24631 0.3376,2.4921 0.26458,6.5088 -0.0877,4.8248 -0.23699,6.396 -0.69993,7.3674 -0.32365,0.6791 -0.89385,1.9491 -1.2671,2.8222 -2.0376,4.7662 -6.9526,6.782 -13.49,5.5328 z m 33.337,0.21595 c -1.5911,-0.37579 -4.481,-2.0271 -5.3534,-3.059 -0.51251,-0.60624 -1.2372,-1.8166 -1.6105,-2.6897 -0.37327,-0.87313 -0.94347,-2.1431 -1.2671,-2.8222 -0.46294,-0.97139 -0.61222,-2.5426 -0.69993,-7.3674 -0.073,-4.0167 0.0183,-6.2624 0.26458,-6.5088 0.20684,-0.20684 0.38036,-0.86026 0.38561,-1.452 0.008,-0.9399 0.6789,-2.7889 3.5249,-9.719 0.35857,-0.87313 1.2224,-3.0956 1.9197,-4.9389 1.7224,-4.5532 2.156,-5.472 3.6548,-7.7433 2.6101,-3.9553 3.9033,-4.9091 7.7261,-5.6987 3.485,-0.71983 5.9696,0.27376 7.9443,3.1769 0.6068,0.89212 1.1934,1.7014 1.3035,1.7984 0.3332,0.29353 1.0247,1.8314 1.7449,3.8806 0.59079,1.6809 1.0837,3.9716 1.9738,9.1722 0.11623,0.6791 0.35247,2.0285 0.52499,2.9986 0.49233,2.7686 0.41446,8.5473 -0.15688,11.642 -0.9743,5.2769 -1.2774,6.0853 -3.4463,9.1901 -0.63079,0.90299 -1.3056,1.8947 -1.4997,2.2038 -1.5977,2.5455 -4.6493,5.5462 -6.6129,6.5027 -2.6236,1.278 -7.8853,2.0092 -10.32,1.4341 z m -71.349,-17.64 c -0.52952,-1.1402 -0.60173,-7.7234 -0.08819,-8.0408 0.19403,-0.11991 0.35278,-0.55189 0.35278,-0.95995 0,-3.214 5.1677,-13.529 6.3971,-12.769 0.1681,0.10388 0.30563,2.9502 0.30563,6.3251 0,3.3749 0.1481,6.5008 0.32912,6.9465 0.18102,0.44569 0.75605,2.2391 1.2779,3.9854 0.52185,1.7463 1.1148,3.532 1.3177,3.9682 0.2029,0.4362 0.28811,0.87408 0.18927,0.97292 -0.09884,0.0988 -1.3424,-0.0401 -2.7635,-0.30886 -2.3818,-0.45037 -2.6965,-0.4374 -4.0248,0.16585 -1.9996,0.90818 -2.7698,0.8415 -3.293,-0.2851 z m 112.59,0.2851 c -1.3283,-0.60325 -1.643,-0.61622 -4.0248,-0.16585 -1.4211,0.26871 -2.6647,0.4077 -2.7635,0.30886 -0.0988,-0.0988 -0.0136,-0.53665 0.18928,-0.97292 0.20294,-0.43627 0.7959,-2.222 1.3177,-3.9682 0.5218,-1.7462 1.0968,-3.5397 1.2778,-3.9854 0.18101,-0.44569 0.32912,-3.5716 0.32912,-6.9465 0,-3.3749 0.13753,-6.2212 0.30562,-6.3251 1.2295,-0.75987 6.3972,9.5552 6.3972,12.769 0,0.40806 0.15875,0.84004 0.35278,0.95995 0.51353,0.31738 0.44133,6.9006 -0.0882,8.0408 -0.52321,1.1266 -1.2934,1.1933 -3.293,0.2851 z m -72.29,-36.262 c -0.38806,-0.0888 -1.545,-0.46731 -2.5709,-0.84102 -1.0259,-0.37371 -2.4254,-0.67947 -3.11,-0.67947 -2.538,0 -3.2783,-1.4051 -2.1093,-4.0036 0.27504,-0.61141 0.85449,-2.1435 1.2876,-3.4047 0.9708,-2.8266 1.8123,-4.1271 4.5503,-7.0326 2.362,-2.5064 3.1107,-2.5652 2.4031,-0.18874 -0.82365,2.7664 -0.44339,11.919 0.65548,15.776 0.17993,0.63164 0.11493,0.65362 -1.1064,0.37397 z m 34.167,-0.36018 c 1.1026,-3.861 1.4853,-13.018 0.65985,-15.79 -0.70758,-2.3765 0.0412,-2.3177 2.4031,0.18874 2.738,2.9055 3.5795,4.206 4.5503,7.0326 0.43316,1.2612 1.0126,2.7933 1.2877,3.4047 1.169,2.5985 0.42869,4.0036 -2.1093,4.0036 -0.68457,0 -2.0841,0.30177 -3.11,0.67061 -1.0259,0.36885 -2.3146,0.77192 -2.8636,0.89573 -0.84352,0.19022 -0.97034,0.12727 -0.81804,-0.40603 z"
       fill="#c1a657"
       stroke-width="0.35278"
       id="path2" />
  </g>
</svg>
