<svg xmlns="http://www.w3.org/2000/svg" width="717" height="393.2" viewBox="0 0 717 393.2">
  <defs>
    <linearGradient id="a" x1="1" x2="0" y1=".7" y2=".2" gradientUnits="objectBoundingBox">
      <stop offset="0" stop-color="#1f2334"/>
      <stop offset="1" stop-color="#161926"/>
    </linearGradient>
  </defs>
  <path fill="url(#a)" fill-rule="evenodd" d="M714.8 249.2c-3.7-3.9-7.8-7.4-10.6-12-1.6-2.7-4-3.7-7.2-2.9-6.8 1.8-13.5 3.5-19.3 7.5-1.7 1.2-3.7 2.7-5.5 2-4.2-1.9-8.6-1.3-12.8-2.2a43 43 0 0 0-23.5 1.6l-.9-2.2c-7.2-4.8-13.4-12.3-23.8-9-1.3.3-3.1-.1-3.6-1.6-2-5.8-5.9-8.1-11.9-7.4-.8-.1-1.6-.4-2.2-1a56.3 56.3 0 0 0-13.5-6.2c-2.4-.8-4.3-2.2-3.7-5.3.2-2.7-.3-6.3-3.2-6-5.1.4-8.3-2.9-12.2-4.7-10.9-5-21.5-10.2-27-21.7-5.4-2.5-9.6-7-15.6-8.3-5.3 3-4.3 0-8.9 6-6.6-5.9-7.3-11.9-15.6-15.9a8 8 0 0 0-1.6-.6c-2.2-.3-4.3-.4-6.2 1v.1a4.3 4.3 0 0 1-1-4.6c-2.2-1.5-3.8-4.5-7.2-2.4-3.5-1.6-6.4-4-9.6-6-3.4-.3-8.3 1.5-9.1-3-.7-3.6-2.3-3-4.3-2.9l-5.8.3c-9.3.8-15-7.4-23.4-8.8-5.7-1-10.1-5.8-16.2-6-1.6-3.3-4.9-3.8-7.9-4.6l-13.8-3.7-14.4-2.4h-18c-.8-.4-1.6-.6-2.4-.8-.7 0-1.4 0-2 .5l-.3-.1c-2.4-1.5-5-2.4-7.8-1.4l-.6.5a3 3 0 0 0-3.7-1.2l-4.4-.8-1.4-1.1a8.3 8.3 0 0 0-5-.5l-6.6-2.1a6 6 0 0 0-.4-.8c-4.3-3.2-8.8-5.7-14.4-5.5l-.3-.5c-3.3-3-8-3.7-11.7-6a55 55 0 0 0-25.5-5.8c-6.8.3-13.4 0-19.9-2.4a17.5 17.5 0 0 1-.4.4c-2-4.7-6.3-5.9-10.8-6.5h-.7c-2.6-1.8-5.9-2.5-7.8-5.4L211.3 71v-1c-6.5-4.5-14-5-21.4-6.5a7 7 0 0 0-4.5.4 4 4 0 0 0-.9.7c-.6-.6-1.3-.5-2 .2-.1-.4-.4-.7-.7-1-6.3-2-13 .2-19.3-1.3-5.3-1.1-8.3-6.4-13.6-7.4l-6-5.1c-1-2.1-2.7-3.7-4.8-4.5l-2.5-2.3c-10-8.6-20.9-16.4-32.4-23h-1.1a8 8 0 0 0-4.8-2.4c-2 .3-2.8-1-3.5-2.5-.5-.3-1-.4-1.6-.3-1 .5-2.3.9-2.3 2.2-2-2-4.9-3-6.1-5.8a2 2 0 0 0-2.1-.9l-4.8-1L72 6.9 65 4.7a14 14 0 0 0-7.2-2.5c-3.3-2.6-7.6.1-11-2.1-.6.5-1.5.8-2.4.9V0A48.1 48.1 0 0 0 23 5L0 16.6v376.5h717V250.6" data-name="3"/>
</svg>
