<svg xmlns="http://www.w3.org/2000/svg" xmlns:xlink="http://www.w3.org/1999/xlink" width="305.746" height="140.74" viewBox="0 0 305.746 140.74">
  <defs>
    <linearGradient id="linear-gradient" x1="-0.031" y1="0.12" x2="0.544" y2="0.5" gradientUnits="objectBoundingBox">
      <stop offset="0" stop-color="#1f2334"/>
      <stop offset="1" stop-color="#1f2334"/>
    </linearGradient>
  </defs>
  <path id="_3" data-name="3" d="M304.8,106.254a29.947,29.947,0,0,1-4.53-5.141,2.545,2.545,0,0,0-3.078-1.192c-2.871.743-5.733,1.485-8.225,3.2-.7.483-1.547,1.16-2.326.824-1.779-.771-3.669-.545-5.477-.931a18.31,18.31,0,0,0-10,.712c-2.164.744-4.089,2.383-6.531,2.209,1.9-1.349,4.436-1.491,6.16-3.159-3.088-2.07-5.738-5.256-10.166-3.875a1.237,1.237,0,0,1-1.546-.63,4.251,4.251,0,0,0-5.058-3.194,1.633,1.633,0,0,1-.936-.379,24,24,0,0,0-5.766-2.685c-1.047-.315-1.846-.923-1.582-2.225.085-1.17-.131-2.692-1.349-2.6-2.191.171-3.538-1.2-5.227-1.976-4.627-2.123-9.138-4.378-11.526-9.273-2.289-1.05-4.09-3.008-6.648-3.545-2.242,1.286-2.614,1.7-1.981,3.283-2.821-2.486-4.921-5.785-8.432-7.486a3.374,3.374,0,0,0-.711-.247,3.263,3.263,0,0,0-2.622.4c0,.023,0,.046-.007.07a1.815,1.815,0,0,1-.438-1.962c-.923-.644-1.623-1.955-3.072-1.023-1.462-.7-2.7-1.75-4.094-2.556h0c-1.423-.161-3.522.6-3.883-1.309-.29-1.534-.977-1.26-1.829-1.208-.822.051-1.668.059-2.454.126-3.984.343-6.424-3.152-10-3.77-2.435-.421-4.316-2.481-6.917-2.534-.648-1.447-2.059-1.645-3.349-2.007-1.949-.546-3.911-1.047-5.867-1.568l-6.149-1.021h0l-7.689,0a5.305,5.305,0,0,0-1.012-.31,1.177,1.177,0,0,0-.873.19.293.293,0,0,0-.138-.033,3.73,3.73,0,0,0-3.306-.613c-.083.083-.165.164-.248.245a1.259,1.259,0,0,0-1.566-.515l-1.909-.362a3.9,3.9,0,0,0-.577-.471,3.545,3.545,0,0,0-2.109-.205l-2.826-.9a2.524,2.524,0,0,0-.17-.359c-1.844-1.325-3.773-2.417-6.149-2.307-.039-.08-.078-.161-.119-.241-1.442-1.3-3.4-1.585-5.011-2.538a23.457,23.457,0,0,0-10.853-2.494,20.576,20.576,0,0,1-8.491-1.024c-.068.1-.14.188-.214.28l.026-.09c-.862-2.021-2.667-2.507-4.586-2.8-.1.008-.2.02-.3.029-1.113-.763-2.529-1.093-3.32-2.316L90.116,30.3c-.011-.14-.024-.283-.042-.432-2.729-1.915-5.977-2.14-9.1-2.767a3.023,3.023,0,0,0-1.91.147,1.74,1.74,0,0,0-.372.3c-.272-.251-.552-.209-.838.075a1.188,1.188,0,0,0-.321-.4c-2.693-.879-5.518.063-8.234-.581-2.262-.465-3.552-2.708-5.82-3.159l-2.527-2.169A3.65,3.65,0,0,0,58.874,19.4l-1.045-.973A91.962,91.962,0,0,0,44.025,8.6a1.008,1.008,0,0,1-.492.016,3.392,3.392,0,0,0-2.046-1.037C40.647,7.7,40.28,7.159,40,6.507a1.2,1.2,0,0,0-.673-.11c-.461.214-1,.371-.983.943-.829-.877-2.1-1.288-2.623-2.482a.817.817,0,0,0-.884-.373L32.792,4.04h0L30.718,2.954l-3.048-.96h0A5.962,5.962,0,0,0,24.6.936v0C23.2-.151,21.371,1,19.952.031A1.948,1.948,0,0,1,18.9.425a1.07,1.07,0,0,0,.026-.415A20.5,20.5,0,0,0,9.759,2.094h0L0,7.128v102.8c2.213,58.284,92.61,16.21,97.567,14.959,1.908-.481,4.038-.667,5.45-2.377a.389.389,0,0,0-.007-.328c2.921-1.21,6-1.082,9.072-1.079,4.924.745,9.092,3.3,13.38,5.573h0l2.029,1.548c2.637,2.521,157.208.188,159.276-1.874-.421-.247-1.047-.447-.726-1.085a2.135,2.135,0,0,1,2.212-1.032,2.276,2.276,0,0,0,.259.093l.35.081c2.378-2.191,3.914-5.213,6.81-6.893,1.982-2.092,4.724-3.149,6.865-5.024.078-1.333,1.4-1.6,2.1-2.387,1.153-1.29,1.693-2.245.162-3.849M4.969,69.777c.029-.227.058-.476.093-.743l.1.015a4.726,4.726,0,0,0,.276.771q-.236-.025-.472-.043m8.49,56.882c.031-.145.055-.279.072-.4a.366.366,0,0,1-.072.4m2.589-98.787a1.514,1.514,0,0,1,.383.156q-.186-.087-.383-.156m4.47,86.73c-.014-.022-.029-.042-.043-.065l.051.019c0,.016-.005.031-.008.046m8.2-16.413c-.039,0-.077,0-.116-.006.042-.055.082-.113.123-.169a1.162,1.162,0,0,1-.008.176m9.09-84.376v0c-1.446-1.934.108-3.735.669-5.583a8.733,8.733,0,0,1-.668,5.581M49.136,94.456l-.354.061c-.039-.122-.079-.234-.121-.337.151.02.3.038.452.053a.382.382,0,0,1,.023.222m2.5-.87c.007-.013.014-.027.02-.041.013.013.025.028.039.041h-.058m8.213,34.805-.013-.015.061-.011-.048.026m1.5-98.217c.09-.008.175-.018.257-.029.012.073.027.144.044.215-.1-.062-.2-.125-.3-.186m1.127,49.06-.021-.023v-.025l.048.036-.026.011M75.7,91.5l.007-.047.031.04L75.7,91.5m6.174-43.963.016-.019.008.017-.024,0m35.325-4.3a6.537,6.537,0,0,0,2.408,1.271c-.731.082-1.319.344-1.226,1.354.169,1.842,1.213,3.995,2.951,3.866,1.782-.132,3.008.829,4.543.965.648.057,1.351.565,1.809-.236a1.987,1.987,0,0,0-.084-2.388,10.161,10.161,0,0,0-6.853-3.606,2.5,2.5,0,0,0,.627-.287c1.934-1.222,2.946-.287,3.914,1.164a2.583,2.583,0,0,0,1.268,1.2c1.89.589,1.913,1.822,1.373,3.416a4.763,4.763,0,0,0-.613,2.083.328.328,0,0,0-.37.1l-.157.149c.039-.115.077-.234.111-.359-2.354-.692-4.715-1.343-7.043-2.129a4.979,4.979,0,0,1-2.658-6.562m13.089,11.177a.97.97,0,0,0-1.513.4c-1.215,2.631-2.845,2.506-4.647,1.409a2.952,2.952,0,0,0,1.631-.531c.386-.339,1.144-.775.487-1.307.566-.277,1.123-.572,1.674-.877a1.624,1.624,0,0,0,.237-.2c1.452,1.142,3.108.9,4.771.6-.654.968-1.319,1.76-2.639.5m5.2,65.492.021-.03a1.132,1.132,0,0,0,.115-.217c.115.06.235.118.365.172-.176.023-.341.048-.5.074m9.327-68.162c-.03-.036-.061-.071-.09-.108.044,0,.087-.006.133-.012-.014.04-.029.079-.043.12M155.984,71.26a1.013,1.013,0,0,1,.416-.239,3.244,3.244,0,0,0-.416.239m10.367,55.124c.009-.04.018-.081.026-.122l.055.031-.081.09m18.6-52.856c-.524.355-1.248-.023-1.818-.537a8.869,8.869,0,0,0-5.2-2.041c-4.089-.474-4.224-.758-2.715-3.139-2.532.784-3.09.468-3.178-2.171a5.2,5.2,0,0,0-1.064-2.764,4.956,4.956,0,0,1,2.756,1.1c2.274,2.54,4.582,4.993,8.173,5.5a1.02,1.02,0,0,0,0,.105,2.381,2.381,0,0,0,.126.724,2.063,2.063,0,0,0,.567.757c.671,1.559,1.512,1.592,3.317.3a1.634,1.634,0,0,1,.632.251,12.288,12.288,0,0,0,5.666-.459,2.823,2.823,0,0,0,.475,2.833c-2.5-1.161-4.968-2.341-7.737-.463m12.305,4.039c-.064-.045-.129-.091-.2-.133a2.236,2.236,0,0,0-.952-.158,3.155,3.155,0,0,1,.9-.079q.049.087.1.173a1.9,1.9,0,0,0,.263.145.694.694,0,0,0-.115.052m13.271,20.047c-.02.026-.039.052-.058.078,0-.173-.007-.348-.02-.523.07.158.128.381.079.445m38.765,15.9.024-.009,0,.011-.028,0m3.071-4.092h0c.012-.016.025-.031.038-.047.03.038.06.075.09.111-.043-.021-.086-.041-.129-.064" transform="translate(0 0)" fill-rule="evenodd" fill="url(#linear-gradient)"/>
</svg>
