<svg xmlns="http://www.w3.org/2000/svg" xmlns:xlink="http://www.w3.org/1999/xlink" width="1484.848" height="188.792" viewBox="0 0 1484.848 188.792">
  <defs>
    <linearGradient id="linear-gradient" x1="0.072" y1="0.163" x2="0.5" y2="1" gradientUnits="objectBoundingBox">
      <stop offset="0" stop-color="#181c29"/>
      <stop offset="1" stop-color="#1a1e2e"/>
    </linearGradient>
  </defs>
  <path id="_2" data-name="2" d="M1484.641,44.692c-1.973-1.871-3.981-1.954-6.028-.1-2.536,2.051-5.4.567-8.042.557-15.3-.06-30.617.646-45.922-.328-11.294,1.084-20.757,6.982-30.714,11.605-.61,2.88-3.095,2.031-4.9,2.5a4.836,4.836,0,0,0-3.442,3.217,4.736,4.736,0,0,0-2.519.253,23.4,23.4,0,0,1-2.357.227,6.289,6.289,0,0,0-2.237,1.046c-1,.687-2.008,1.351-3.052,1.929-.775.329-1.537.689-2.288,1.073a12.125,12.125,0,0,1-3.844.809,8.1,8.1,0,0,0-4.624,2.5c-.041.062-.074.124-.112.187-5.789-.629-10.055,3.654-15.122,5.357a97.793,97.793,0,0,1-10.555,4.815c-5.416,1.909-10.207,5.25-15.723,6.926-2.453,1.1-4.964,2.112-7.353,3.311-3.538,1.776-8,2.134-10.206,6.1a4.224,4.224,0,0,0-4.012-.634,6.462,6.462,0,0,1-.727.63l-27.239-11.165c-3.784-3.862-7.927-6.695-13.729-4.8-.232.109-.463.223-.692.339.257-.4.507-.811.739-1.247-2.589-2.548-5.721-2.232-8.9-1.667l-2.553-.06-15.082.441-4.879-.369c1.163-1.83,3.564-.373,5.015-1.885a9.036,9.036,0,0,0-7.625.8l0,0,0,0a3.285,3.285,0,0,1-1.157-.181,2.512,2.512,0,0,0-2.946-1.472q-.214.122-.434.234l-10.426-6.237c-3.911-4.657-9.061-6.8-14.983-7.383-9.515-2.5-18.392-6.718-27.516-10.272-2.687-3.088-6.305-3.555-10.084-3.553a10.337,10.337,0,0,0-1.769.376,22.681,22.681,0,0,1-3.348.76l-10.866-1.117c.266-3.008-2.3-3.95-4.134-5.365-4.412-3.4-9.657-5.4-14.323-8.384-9.122-5.906-18.918-10.561-28.716-15.184-3.718-1.753-7.546-3.615-11.919-3.12-4.259,2.849-.743,6.881-1.048,10.172-.54,5.856,3.625,8.416,9.84,7.9,3.642-.3,7.355-.133,9.5,3.158a9.579,9.579,0,0,0,6.622,4.217l-.014.01c-.048.1-.1.182-.152.276-4.166-1.878-9.161-1.144-13.012-4.178-.988-.778-2.446-.123-3.375.809-1.6,1.609-3.376.754-5.208.706-7.37-.2-9.964-8.232-16.46-9.83-.576-.143-.508-1.493-.782-2.257-2.071-5.772-3.994-11.6-6.4-17.244-2.091-2.272-4.8-2.7-7.7-2.547-1.856.591-4.443,2.6-3.292,3.482,3.7,2.826,1.692,6.832,3.078,9.834,3.1,6.729,7.829,12.687,12.825,17.935,2.837,2.981,4.909,8.016,10.14,8.412-1.1,2.614-1.514,5.542-3.5,7.744-3.338-13.228-11.972-20.941-25.455-23.6-2.049.2-3.424-2.4-5.481-2.153-.026-.068-.052-.131-.078-.2-3.589-3.78-8.25-3.091-12.7-2.888-2.121.1-4.669.882-4.461-2.28.212-3.224-2.756-7.97,2.741-9.265,3.706-.874,5.05-2.063,2.421-5.154-2.35-2.764-.728-3.256,1.6-4.055,1.961-.673,5.313.667,5.318-3.245-8.018-3.7-15.754-1.409-23.472,1.136a4.4,4.4,0,0,0-1.208,1.173c-.115-.111-.233-.221-.358-.328-10.638,2.3-20.014,7.763-29.918,11.9.027,2.509-2.023,3.243-3.642,4.473-5.424,4.113-11.487,7.361-16.551,11.955-.428-.067-.858-.121-1.292-.151-7.426,1.276-13,6.612-19.882,9.068-.936.879-1.688,1.819-1.208,3.2-.1-.109-.193-.219-.3-.323-2.828-.769-4.766,1.145-6.938,2.334-4.487,3.373-9.463,5.959-14.266,8.826-15.278,9.122-31.565,14.634-49.63,13.779a15.877,15.877,0,0,0-6.163.637c-.068.205-.142.4-.217.594-.446-2.419-2.714-2.312-4.368-2.137-3.32.349-6.324-.555-9.4-1.358a7.09,7.09,0,0,0-4.608.928,6.107,6.107,0,0,1,.154.941l-.516-.266-7.512-1.292a6.588,6.588,0,0,0-5.455-1.59,4.564,4.564,0,0,0-2.212.783c-2.741-1.136-5.77.023-8.6-.432a9.2,9.2,0,0,0-5.373-1.765c-2.081.053-4.158.045-6.222.261a9.351,9.351,0,0,0-1.8.348c-5.164.119-10.236,1.912-15.378,2.41-1.347-.8-2.306-.835-2.47.715-.057-.032-.114-.065-.173-.095-6.044-.644-10.542,2.971-15.393,5.6a4.147,4.147,0,0,0-.973,1.376l-22.25,4.9c.172-.779.615-1.511-.546-.8a9.189,9.189,0,0,0-4.652-.97,25.872,25.872,0,0,0-5.022.518,16.805,16.805,0,0,1-7.253.584c-5.16-.155-10.333-.385-15.487-.03-2.055.141-4.552-.127-5.571,2.183a3.82,3.82,0,0,0-.371-.185c-3.3-1.243-6.971.015-10.238-1.473-3.083-.407-6.163-.885-9.139.543a5.5,5.5,0,0,0-.81.722c-1.991-2.122-5-1.384-7.383-2.375-1.765-.152-3.489-.19-4.747,1.34a5.609,5.609,0,0,0-.984-1.1c-7.133-1.453-14.049-4.844-21.632-2.5-.041.044-.085.084-.126.127.038-.23.066-.472.082-.727a7.077,7.077,0,0,0-4.226-1.443c-2.33-.7-4.761-1.046-7.038-1.934-2.084-.373-4.2-1.76-6.2.224l-.293.258c.132-.277.265-.552.405-.827a4.6,4.6,0,0,0-4.954-1.52q-.283.413-.566.821c-3.029-.025-5.58-1.727-8.394-2.506l-8.435-2.323.078-.1a4.781,4.781,0,0,0-2.785-2.48c-2.118-.478-4.234-1.667-6.329.065-.082.1-.17.2-.255.3.164-.288.331-.573.485-.874-2.35-2.608-5.457-3.008-8.716-2.969q-.316.232-.629.451a2.89,2.89,0,0,0-1.933-.866,3.093,3.093,0,0,0-2.5,1.052c-4.326-6.443-10.813-6.949-17.7-6.349l-.351.219c-.608-1.615-1.769-2.4-3.8-1.89-.249.169-.5.317-.748.453L533.061,41.882A5.685,5.685,0,0,0,529.63,39.4c-9.77-2.474-19.465-5.326-29.59-6.106-1.162.257-2.318.531-3.471.809-7.372-1.571-14.893-.916-22.365-1-8.108-1.243-14.621,1.689-19.985,7.622l-7.377,2.787a3.057,3.057,0,0,0-.33-.731c-5.393-2.06-11.23-2.189-16.652-4.641-11.549-5.222-22.679-11.257-34.138-16.634-2.808-1.318-5.528-2.937-8.83-2.585-.123.043-.238.092-.353.141a2.7,2.7,0,0,0-1.4-1.8c-11.182-5.072-21.848-11.935-35-10.324a33.16,33.16,0,0,0-6.058,2.3,5.94,5.94,0,0,0-2.487,2.489c-8.071,5.517-16,11.2-22.312,18.793-2.391-.48-3.609,1.264-4.923,2.744a64.141,64.141,0,0,1-12.19,10.184c-3.214,2.181-6.516,4.24-9.656,6.525-2.406,1.75-5.663,2.8-6.285,6.236-2.779-.365-4.428,1.708-6.271,3.334-4.342,3.836-7.3,8.927-11.591,12.813-.131.15-.266.3-.4.443a4.967,4.967,0,0,0-4.191.087,3.7,3.7,0,0,0-2.341,3.367,2.234,2.234,0,0,0,1.453,2.184c-5.689,3.588-10.019,8.877-15.591,12.611-2.814,2.192-5.6,4.423-8.587,6.38-2.249,1.575-4.492,3.156-6.682,4.812-3.418,2.405-7.452,3.8-10.667,6.53a3.539,3.539,0,0,0-.812,1.2l-.813.009c-6.165,2.131-12.153,4.694-18.1,7.338a3.408,3.408,0,0,0-1.2,1.776,2.2,2.2,0,0,0-2.726.639,3.979,3.979,0,0,0-1.265,1.009,8.655,8.655,0,0,0-3.866.827,3.763,3.763,0,0,0-1.127-.418,6.262,6.262,0,0,0-2.649-.1c-5.532.883-10.745,3.194-16.365,3.661-3.612.785-7.411.905-10.649,3.021a8.845,8.845,0,0,1,.626,2.256,3.633,3.633,0,0,1-.851-1.534c-.892-1.257-2.2-1.385-3.581-1.313-2.222.608-4.539.625-6.769,1.152-5.25,1.55-11.064.925-15.874,4.162-.067.264-.114.522-.16.778-2.407-1.738-4.827-.33-7.237.073-3.633,1.631-8.1,1.9-10.1,6.164-.165-.163-.331-.325-.509-.477-2.618-.149-4.8,1.12-6.885,2.382a195.2,195.2,0,0,1-19.692,10.171c-6.988,3-14.391,3.436-21.874,3.535-19.928.265-39.817-.955-59.726-1.357C5.953,153.656,2.377,153,0,156.242c4.97,5.75,12.176,4.966,18.637,6.367,5.1.629,10.138,2.487,15.34.662l26.271,1.262a45.751,45.751,0,0,0,16.25,0q5.631-.008,11.262-.012a165.922,165.922,0,0,1,22.508-3.749c6.811-.068,12.69,3.766,19.373,4.757,2.768.41,6.256,4.277,9.251,6.8,3.4,2.856,6.689,6.417,11.611,6.519,12.911.266,25.878-.283,38.337,4.283,1.695.623,3.974,2.15,5.822.079,6.588-7.38,13.327-1.759,19,.759,6.5,2.885,12.162,5.8,19.3,2.525,3.047-1.4,6.216-.529,9.584.525,7.879,2.468,15.83-.142,23.713-1.183.778-.1,2.052-1.388,2-2.031-.287-3.431,2.031-3.018,4.077-3.039,7.019-.072,14.079.054,20.934-1.645a22.865,22.865,0,0,1,9.809-.246c5.908,1.044,1177.467,14.706,1181.566,8.145.453-.727,0-125.707-.007-142.325M1142.388,56.279l.017,0-.011.011-.005-.014M933.272,77.045c-.005-.052,0-.1-.007-.154.119.026.239.051.359.074-.117.029-.234.056-.353.08m161.335-17.186c-.044.031-.093.06-.136.092l-.049-.2c.063.039.123.073.185.11M934.159,71.938a1.675,1.675,0,0,1-.9-.808,8.8,8.8,0,0,1,.9.808M899.424,79.51l-.069-.019c-.01-.1-.018-.2-.025-.3.028.112.061.217.094.32m-36.767-8.116c-.081.143-.166.279-.253.413a1.94,1.94,0,0,1,.253-.413m-29.239-.962c0,.019-.006.038-.01.056l-.054-.044.064-.013M525,69.086q-.519-.471-1.128-.988c.436.092.85.177,1.247.256a5.732,5.732,0,0,1-.119.731M436.142,97.292a2.147,2.147,0,0,1-1.66.783c.568-.264,1.122-.532,1.66-.783M1366.2,84.758c-.007.024-.013.048-.021.072-.029.021-.06.04-.089.061.038-.045.072-.088.109-.133" transform="translate(0 0)" fill-rule="evenodd" fill="url(#linear-gradient)"/>
</svg>
