<svg xmlns="http://www.w3.org/2000/svg" xmlns:xlink="http://www.w3.org/1999/xlink" width="717" height="393.18" viewBox="0 0 717 393.18">
  <defs>
    <linearGradient id="linear-gradient" x1="0.968" y1="0.654" x2="0" y2="0.201" gradientUnits="objectBoundingBox">
      <stop offset="0" stop-color="#1f2334"/>
      <stop offset="1" stop-color="#161926"/>
    </linearGradient>
  </defs>
  <path id="_3" data-name="3" d="M714.791,249.176c-3.666-3.842-7.836-7.351-10.623-12.056-1.561-2.636-4.061-3.612-7.217-2.8-6.732,1.743-13.445,3.481-19.288,7.5-1.647,1.133-3.627,2.721-5.453,1.932-4.171-1.809-8.6-1.279-12.844-2.183a42.938,42.938,0,0,0-23.446,1.669c-5.074,1.746-9.59,5.588-15.316,5.179,4.445-3.162,10.4-3.5,14.446-7.409-7.241-4.854-13.457-12.326-23.84-9.087-1.32.413-3.154-.051-3.625-1.478-1.932-5.84-5.862-8.178-11.861-7.489a3.829,3.829,0,0,1-2.195-.889,56.271,56.271,0,0,0-13.522-6.3c-2.455-.74-4.33-2.165-3.709-5.218.2-2.744-.306-6.313-3.164-6.089-5.137.4-8.3-2.819-12.258-4.635-10.852-4.979-21.429-10.267-27.028-21.746-5.367-2.463-9.591-7.055-15.589-8.314-5.258,3.016-6.13,3.978-4.647,7.7-6.616-5.83-11.539-13.566-19.775-17.556a7.911,7.911,0,0,0-1.668-.58c-2.149-.343-4.264-.452-6.149.947-.007.054-.01.108-.016.163a4.257,4.257,0,0,1-1.027-4.6c-2.164-1.511-3.807-4.586-7.2-2.4-3.429-1.633-6.334-4.1-9.6-5.995l0,0c-3.336-.378-8.259,1.417-9.105-3.07-.679-3.6-2.291-2.956-4.288-2.832-1.927.119-3.912.138-5.755.3-9.342.8-15.064-7.391-23.447-8.84-5.711-.988-10.12-5.817-16.222-5.943-1.521-3.392-4.828-3.857-7.855-4.706-4.571-1.281-9.172-2.456-13.759-3.677l-14.42-2.4v0l-18.031-.011a12.44,12.44,0,0,0-2.373-.726,2.76,2.76,0,0,0-2.046.445.688.688,0,0,0-.323-.077c-2.389-1.519-4.9-2.38-7.753-1.437-.194.194-.388.384-.583.574a2.952,2.952,0,0,0-3.672-1.208l-4.478-.849a9.138,9.138,0,0,0-1.353-1.1,8.314,8.314,0,0,0-4.946-.482l-6.626-2.111a5.919,5.919,0,0,0-.4-.841c-4.324-3.107-8.849-5.669-14.42-5.411-.092-.189-.182-.377-.279-.566-3.382-3.037-7.965-3.718-11.752-5.951-8.094-3.662-16.549-6.3-25.451-5.849-6.875.352-13.466.026-19.913-2.4-.16.223-.329.442-.5.658.02-.071.04-.141.061-.211-2.022-4.74-6.253-5.88-10.754-6.57-.233.02-.464.047-.7.069-2.609-1.79-5.932-2.563-7.785-5.431L211.33,71.048c-.026-.328-.057-.664-.1-1.014-6.4-4.491-14.016-5.018-21.343-6.489a7.089,7.089,0,0,0-4.478.344,4.08,4.08,0,0,0-.873.7c-.639-.588-1.294-.49-1.965.175a2.785,2.785,0,0,0-.752-.927c-6.316-2.062-12.941.148-19.31-1.362-5.3-1.09-8.331-6.349-13.648-7.409q-2.963-2.542-5.925-5.087a8.559,8.559,0,0,0-4.874-4.484q-1.224-1.142-2.45-2.281a215.659,215.659,0,0,0-32.372-23.037,2.365,2.365,0,0,1-1.154.036,7.954,7.954,0,0,0-4.8-2.432c-1.97.271-2.831-.992-3.49-2.522A2.817,2.817,0,0,0,92.223,15c-1.081.5-2.34.869-2.3,2.212-1.944-2.056-4.921-3.021-6.152-5.82a1.916,1.916,0,0,0-2.073-.874L76.9,9.474h0Q74.467,8.2,72.035,6.928L64.887,4.677h0a13.981,13.981,0,0,0-7.2-2.481l0,.006,0-.007c-3.275-2.546-7.568.144-10.9-2.121A4.569,4.569,0,0,1,44.319,1a2.509,2.509,0,0,0,.062-.972c-7.6-.285-14.652,1.841-21.5,4.885v0Q11.443,10.811,0,16.716V392.127c5.19,2.348,10.081.259,14.834-1.338,8.795-2.954,17.382-6.512,26.31-9.091,5.792-2.42,12.643-1.866,17.717-6.3,12.317-2.513,24.773-.749,37.156-1.213,2.866,1.87,5.351.042,7.774-1,7.136-3.072,13.17-7.908,19.337-12.5q3.844-3.751,7.9-7.274c1.324-1.15,3.282-2.377,2.229-4.43l.1.022c1.066-.248,1.376-.643,1.2-1.13h0q2.861-2.021,5.725-4.04c2.774-.942,5.2-2.205,5.491-5.466,2.462.36,4.148-1.326,5.761-2.734,8.982-7.843,18.959-14.256,29.024-20.556,3.147-2.728,7.883-3.379,9.967-7.482,1.983.643,3.65-.536,5.276-1.493a124.442,124.442,0,0,1,33-13.221c4.474-1.129,9.47-1.565,12.78-5.575a.912.912,0,0,0-.016-.77c6.849-2.837,14.079-2.538,21.276-2.531,11.547,1.748,21.322,7.746,31.378,13.069h0l4.759,3.63c6.184,5.913,14.442,8.152,21.67,12.215,7.51,2.189,13.614,6.919,20.042,11.065h.01a2.673,2.673,0,0,0,.968,2.967c5.5,4.924,10.417,10.619,17.519,13.459,9.627,5.455,18.254,12.58,28.5,17l.31-.045c-.109,3.916,2.752,3.861,5.723,3.659,7.956,4.6,16.562,7.672,25.207,10.65.08-.08.163-.15.246-.22,4.75,5.016,11.447,4.344,17.469,5.65,4.893.6,9.73,2.387,14.723.635l25.214,1.211a21.659,21.659,0,0,0,15.6,0l10.809-.011a159.186,159.186,0,0,1,21.6-3.6c.887-1.344,2.279-1.173,3.6-1.2,3.437-1.939,7.023-3.607,10.394-5.665,1.616-.986,3.441-3.082,1.412-4.073-4.245-2.073-5.2-6.559-8.1-9.468l9.526-4.747,7.186-1.2,15.7-3.484c1.994-.377,4.212.356,5.971-1.2q1.769.009,3.54.014c3.644-.684,7.4-.894,10.8-2.574,5.708.845,10.607-2.037,15.831-3.421l2.236.019a10.481,10.481,0,0,0,5.794-1.48l2.556-.994,1.38-1.17h0c6.28-1.513,11.925-4.621,17.836-7.065l1.327-1.329h0a40.113,40.113,0,0,0,10.525-6.2,19.606,19.606,0,0,0,6.293-4.385,31.682,31.682,0,0,0,8.415-6.262A109.057,109.057,0,0,0,672.5,296.3c-.988-.579-2.455-1.049-1.7-2.544,1.1-2.2,3.122-2.416,5.188-2.42a5.333,5.333,0,0,0,.609.219l.822.19c5.577-5.138,9.178-12.224,15.969-16.166,4.648-4.907,11.077-7.384,16.1-11.781.184-3.126,3.278-3.747,4.932-5.6,2.7-3.026,3.971-5.265.381-9.027M11.653,163.634c.068-.532.135-1.116.218-1.744l.242.036a11.083,11.083,0,0,0,.647,1.809q-.552-.059-1.107-.1M31.564,297.026c.073-.34.129-.655.17-.95a.859.859,0,0,1-.17.95m6.07-231.664a3.551,3.551,0,0,1,.9.366q-.436-.2-.9-.366m10.482,203.39c-.033-.052-.069-.1-.1-.153l.119.044c-.007.037-.012.072-.018.109m19.235-38.489c-.091-.009-.181-.011-.271-.015.1-.128.193-.265.29-.4a2.727,2.727,0,0,1-.018.412M88.668,32.394v0c-3.39-4.535.252-8.76,1.569-13.093.613,4.468.715,8.882-1.567,13.089m26.561,189.113-.83.144c-.091-.287-.184-.549-.283-.79.354.047.707.09,1.059.125a.9.9,0,0,1,.054.522m5.863-2.039c.015-.032.033-.064.047-.1.032.031.058.066.091.1h-.137m19.26,81.621-.03-.035c.047-.01.095-.016.142-.026l-.112.061m3.508-230.328c.212-.019.41-.043.6-.069.029.17.063.339.1.5-.234-.146-.466-.293-.707-.435m2.642,115.05c-.016-.018-.033-.035-.05-.053V185.7c.037.029.074.058.112.085l-.061.026m31.033,28.76c.006-.036.011-.073.016-.109l.074.094-.09.015m14.479-103.1.037-.045c.006.014.014.025.02.039l-.057.006m82.84-10.079a15.329,15.329,0,0,0,5.647,2.98c-1.713.192-3.094.807-2.875,3.176.4,4.319,2.844,9.368,6.921,9.066,4.179-.309,7.055,1.943,10.654,2.263,1.52.134,3.168,1.324,4.242-.554,1.043-1.822,1.246-4.069-.2-5.6-4.4-4.669-9.56-8.095-16.071-8.456a5.874,5.874,0,0,0,1.47-.674c4.535-2.865,6.907-.673,9.179,2.73.795,1.191,1.6,2.39,2.973,2.819,4.431,1.381,4.485,4.273,3.22,8.012-.535,1.585-1.653,3.073-1.437,4.884a.769.769,0,0,0-.867.226q-.183.177-.367.35c.092-.27.18-.548.26-.841-5.519-1.622-11.057-3.151-16.517-4.993-5.611-1.893-8.937-9.424-6.233-15.389m30.694,26.211a2.275,2.275,0,0,0-3.549.949c-2.849,6.17-6.671,5.876-10.9,3.3a6.922,6.922,0,0,0,3.825-1.245c.906-.794,2.682-1.816,1.142-3.064,1.328-.651,2.634-1.342,3.926-2.058a3.812,3.812,0,0,0,.555-.477c3.4,2.677,7.288,2.107,11.188,1.409-1.534,2.271-3.093,4.127-6.189,1.182m12.2,153.585c.016-.024.034-.046.05-.069a2.653,2.653,0,0,0,.269-.508c.269.141.551.277.856.4-.412.054-.8.113-1.175.174M339.62,121.346c-.07-.084-.143-.167-.211-.253.1-.009.2-.015.312-.027-.032.095-.067.186-.1.28M365.8,167.11a2.375,2.375,0,0,1,.975-.561,7.609,7.609,0,0,0-.975.561m24.312,129.271c.02-.095.041-.189.061-.285l.13.074-.191.211m12.028,24.995-.017-.031.026.018-.009.013m31.588-148.946c-1.23.834-2.927-.055-4.263-1.26-3.43-3.1-7.565-4.249-12.2-4.787-9.589-1.111-9.9-1.778-6.367-7.36-5.938,1.839-7.246,1.1-7.454-5.09-.089-2.612-1.206-4.5-2.495-6.482,2.282.559,4.82.754,6.464,2.591,5.333,5.956,10.746,11.71,19.166,12.9a2.4,2.4,0,0,0,.008.247,5.583,5.583,0,0,0,.294,1.7,4.838,4.838,0,0,0,1.33,1.775c1.573,3.655,3.547,3.733,7.778.7a3.833,3.833,0,0,1,1.483.589c4.509.493,8.972.506,13.287-1.076-1.059,2.451-.248,4.592,1.114,6.643-5.855-2.723-11.651-5.49-18.145-1.085m21.131,174.357q-.091-.14-.18-.282c.095.006.189,0,.284.012a.614.614,0,0,1-.1.269M462.582,181.9c-.151-.106-.3-.213-.461-.311a5.243,5.243,0,0,0-2.233-.371,7.4,7.4,0,0,1,2.115-.185q.114.2.232.406a4.455,4.455,0,0,0,.618.339,1.628,1.628,0,0,0-.271.121m20.055,151.406.01,0,.011,0-.021,0M493.7,228.915c-.047.06-.091.122-.136.183,0-.406-.016-.816-.048-1.226.164.37.3.893.184,1.043M499.087,333.2c.01-.039.022-.08.031-.119.112.04.225.075.336.116l-.367,0m44.633-8.278c.094-.039.189-.071.282-.108.1.148.2.287.308.428-.2-.1-.395-.209-.591-.319m40.892-58.734.056-.022.01.026-.066,0m7.2-9.6h0c.029-.039.06-.073.09-.109.07.088.141.176.211.26-.1-.05-.2-.1-.3-.151" transform="translate(0 0)" fill-rule="evenodd" fill="url(#linear-gradient)"/>
</svg>
