<svg xmlns="http://www.w3.org/2000/svg" width="1920" height="189.222" viewBox="0 0 1920 189.222">
  <path id="_3" data-name="3" d="M1919.875,183.005c.054-17.017.015-34.035.039-51.069a7.832,7.832,0,0,0-.857-1.506h.023q0-4.994,0-9.986V99.226q0-13.728,0-27.456,0-5.614,0-11.229c-7.191,1.646-14.168,3.107-21.84,1.544-10.4-2.123-21.1-2.782-31.673-4.07-1.374-1.6-3.575.14-5.005-1.232-.415,0-.827,0-1.242,0a2.668,2.668,0,0,0-.273.145c-.057-.033-.115-.064-.172-.1-3.752-2.159-6.9-5.185-10.616-7.393-4.021-2.386-7.677-5.7-12.878-5.159l-.016,0c-.474-.8-1.549-.842-2.557-.961-5.118.588-10.228.979-15.267-.535-9.8-1.29-19.264,1.271-28.845,2.5-4.155,1.362-8.733,1.013-12.677,3.219-.07.391-.152.768-.24,1.138-.052-.109-.1-.219-.162-.329-4.378-1.985-8.344-.583-12.229,1.492-.308.377-.6.751-.9,1.116l-23.119,4.856c-2.592-1.711-5.259-.707-7.834-.072-18.647,4.6-37.21,6.976-55.522-1.46a5.167,5.167,0,0,0-5.359.28,38.746,38.746,0,0,0-11.611,1.817l-.606.037a12.165,12.165,0,0,1-1.81-.384c-3.748-.189-7.172,1.195-10.677,2.2-2.5.958-5.132,1.418-7.685,2.159a7.908,7.908,0,0,0-1.647.708,5.463,5.463,0,0,0-.494.4q-.656.053-1.326.139c-6.237,1.379-12.58,2.354-18.637,4.5a10.7,10.7,0,0,1-4.007,1.6c-12.9,1.946-25.665,4.782-38.677,6.015a21.364,21.364,0,0,0-7.817,1.914c-5.1,2.58-10.647,3.382-16.2,4.224-11.689,1.774-23.4,3.233-35.265,2.908-2.533.358-4.28,1.56-4.693,4.242a3.866,3.866,0,0,1-3.031,3.476c-6.168,1.816-11.2,6.271-17.325,8.221a24.579,24.579,0,0,1-3.218-.687c-5.032-1.039-10.289.582-15.249-1.271-1.215-.268-2.448-.43-3.678-.585-15.577-1.963-31.3-2.766-46.734-5.91-7.69-1.683-15.545-2.535-23.146-4.645-7.509-2.032-15.348-2.563-22.764-5-3.659-.421-7.263-2.295-11-.372.038-1.245-1.011-1.278-2.078-1.287-4.961.627-9.891,1.1-13.848-2.954a5.393,5.393,0,0,0-3.827-1.958c-11.378-1.525-22.309-5.325-33.74-6.555-3.612,3.711-7.878,3.144-12.2,1.791a40.99,40.99,0,0,0-8.4-1.861c-1.518-.145.088-.685.124-.73a3.125,3.125,0,0,0,.682-2.866c-2.458-3.286-6.528-2.676-9.788-4.022a14.216,14.216,0,0,0-2.584-.478c-1.4-.116-2.785-.315-4.183-.36a2.12,2.12,0,0,0-1.435.72c-.132.085-.266.162-.4.244.144-.233.282-.472.411-.723-2.806-2.124-6.225-2.269-9.488-2.9a16.661,16.661,0,0,0-5.157-.967c-9.165.765-18.327-.391-27.488-.1-29.03.582-58.046-.512-87.065-1.266-2.277-.171-4.547.042-6.823.03-3.248.039-6.511-.4-9.732.37-7.131,2.332-14.681,2.8-21.843,4.981-4.549,1.383-9.31,1.616-13.93,2.61-4.092,1.451-8.424.357-12.573,1.2-2.6.867-5.293.775-7.987.86-7.245.228-14.328-2.2-21.6-1.283-2.635.014-5.274,0-7.909-.03-9.9.19-19.8-.239-29.7.271a45.43,45.43,0,0,1-8.332,1.437c-4.173,1.334-8.744.929-12.738,3a7.12,7.12,0,0,0-1.567,1.256c-2.069,2.371-5.261,3.362-7.177,5.934-1.41,1.893-3.065,1.593-4.93.552-6.46-3.611-13.544-3.277-19.927-.949-6.729,2.454-13.109,3.423-19.981,1.7a6.031,6.031,0,0,0-3.1-.033c-12.873,3.787-24.988-1.777-37.386-3.289-5.6-.683-11.473-.894-16.911-3.725-3.05-1.587-8.392-.545-8.788,3.3-.561,5.434-3.694,5.146-7.122,5.413a24.172,24.172,0,0,0-9.579,2.537,20.828,20.828,0,0,1-12.065,2.487c-9.77-1.047-19.515.332-29.265.027-12.586-.395-24.944.314-36.547,5.936A8.668,8.668,0,0,1,766.5,88.9c-8.083-4.931-21.771-3.359-29.27,3.145-.249.214-.121.752,0,1.173a3.97,3.97,0,0,0,2.739,1.29c5.269-.1,8.783,2.035,11.232,6.933,2.4,4.808,7.145,5.22,11.869,3.936a39.092,39.092,0,0,0,10.668-4.837,9.393,9.393,0,0,1,5.209-2.395c6.086-1.195,12.3-1.27,18.456-1.85,24.171-2.281,48.394-1.512,72.612-.731,1.051.033,2.109.059,3.166.045-2.679.557-5.136,1.877-5.088,4.985.056,3.606-1.843,2.967-3.852,3-4.993.077-9.984-.116-14.98.267-16.169,1.238-32.376,1.742-48.577,2.317-3.032.108-5.344-.431-5.765-4.05-.227-1.951-1.094-3.642-3.432-3.791-2.05-.129-4.229.657-4.634,2.48-1.707,7.662-7.141,6.4-12.678,6.077-6.607-.387-14.093-1.474-19.445,2.273-5.808,4.067-11.158,4.817-17.516,3.562a20.271,20.271,0,0,0-7.455.2c-6.15,1.08-12.285,2.134-18.6,1.706-2.67-.18-6-.283-7.594,2-3.01,4.3-7.15,4.221-11.573,4.588-5.612.464-11.112,1.274-16.6-.929a8.68,8.68,0,0,0-6.157.188c-6.824,2.581-12.759.829-19.065-2.361-6.383-3.23-13.362-6.332-20.632-1.4-1.627,1.1-3.691.829-5.468.211-10.818-3.757-22.059-3.988-33.3-3.958-5.071.013-9.558-1.349-13.137-4.789-9.022-8.674-20.373-11.521-32.178-13.344-6.377.066-12.466,2.114-18.765,2.76a4.109,4.109,0,0,0-3.634,2.4c-3.152-2.325-6.769-1.375-10.3-1.043a33.315,33.315,0,0,1-17.073-.027c-8.415-.012-16.753-3.426-25.234-.536a5.209,5.209,0,0,0-.625.8c-4.777-1.959-10.038-.994-14.9-2.446-6.49-.131-12.389-3.16-18.768-3.83-.725-1.954-2.407-2.755-4.192-3.321a129.468,129.468,0,0,1-17.637-7.371c-1.477-.722-3-1.437-4.71-.692-.026.024-.048.048-.072.073l-5.9-3.536c-8.7-7.377-18.583-12.94-28.514-18.416-.468-.259-1.148,0-1.721.215q-9.341-8.294-18.679-16.59c-4.937-7.42-12.653-10.287-20.7-12.608a2.535,2.535,0,0,0-.3-.052c-.516-1.741-2.368-2.188-3.868-2.891-5.215-2.448-10.7-4.374-15.108-8.31a2.782,2.782,0,0,0-2.732-.685c-.756-2.536-3.11-3.541-5.125-4.868C296.1,7.77,285.547,1.056,272.693.065c-4.116.013-8.252-.231-12.352.144-3.421.312-7.14.334-9,4.17-18.023,6.868-37.244,10.745-53.721,21.473-2.754,3.244-7.488,3.638-10.138,7.034h0c-13.265,6.676-24.422,16.364-36.141,25.249q-2.222,2.478-4.441,4.957c-.272.053-.545.1-.823.148-2.621.845-5.332,1.569-5.886,4.9q-.626.587-1.252,1.175c-3.281,4.268-8.622,6.412-11.48,11.115h0C118.624,85.9,110.832,93.267,100.2,95.494a3.537,3.537,0,0,0-1.7-1.36c-7.951-1.541-16-.5-24.008-.713-4.1-.111-8.275-.268-12.043,1.941a6.99,6.99,0,0,0-.865,1.585c-.06-.053-.122-.1-.18-.161a124.738,124.738,0,0,0-18.775,4.949c-.609.106-1.231.163-1.825.324C27.139,105.742,14.555,113.031.139,114.2v34.954c0,11.441.259,22.888-.126,34.316-.157,4.671,1.019,5.752,5.734,5.751q956.772-.187,1913.543-.118c1.12-1.941.578-4.065.585-6.1M238.4,134.43a3.8,3.8,0,0,1-2.695-.578,15.375,15.375,0,0,1,2.695.578m116.984-9.27c-.006-.072-.014-.142-.024-.211.081.016.159.033.241.048-.072.056-.145.108-.217.162M1890.548,71.766c-.037.039-.078.075-.116.114.021-.046.042-.091.063-.136l.053.022m-108.041,1.023c2.306.2,5.264.261,4.881-3.022-.462-3.968,1.444-5.092,4.673-5.737a14.856,14.856,0,0,0,5.726-2.884c.46,4.211,4.421,7.2,6.161,11.128-2.658.881-4.342-.262-6.116-.566-7.292-1.247-15.8,3.223-18.854,9.993-.912,2.023-2.31,3.616-4.429,4.043-2.6.523-4.1,2.011-5.678,3.782,2.111-4.165,5.943-7.3,6.989-11.916.864-3.8,2.96-5.137,6.647-4.82m-43.135,20.922a35.756,35.756,0,0,1,3.626.724c7.956,2.112,14.459-.7,17.148-7.041,2.469,3.386,5.014,4.919,6.847,4.206-3.336,3.394-7.921,5.816-13.1,5.276-3.792-.394-6.886-.261-9.346,3.14-1.179,1.629-3.483,1.823-3.133-.811.37-2.819-.567-4.385-2.045-5.5m-85.89-10.1c3.685-1.976,7.412-2.579,11.072.375a4.452,4.452,0,0,0,4.734.714c4.146-1.986,8.417-1.05,12.158.381,7.941,3.035,15.035.294,22.169-2.274a10.775,10.775,0,0,1,1.649-.482,54.565,54.565,0,0,1-17.386,4.5,5.709,5.709,0,0,0-4.649,3.475.816.816,0,0,1-.075-.225c-.022-.153-.3-.269-.456-.4-4.6-1.5-8.344-.471-10.2,4.2-1.022,2.565-2.379,2.72-4.776,2.43-5.51-.665-11.557-.381-16.325,1.3-6.694,2.365-10.779,1.619-15.189-3.592-2.277-2.691-7.711-3.727-11.819-3.017,9.742-2.288,19.99-2.508,29.1-7.391m-59.531,14.557a14.681,14.681,0,0,0,8.506-1.439c6.472-3.358,13.682-3.865,20.611-5.424-1.764.517-3.128,1.419-3.62,2.722-2.55,6.751-7.26,5.2-11.9,4.837a76.034,76.034,0,0,0-20.309,1.177q-1.622.316-3.246.606c2.9-3.673,6.3-2.89,9.962-2.479m-31.239,1.883c4.851-.248,9.447-.524,14.071.885.6.184,1.254.391,1.911.567a76.387,76.387,0,0,1-21.61.428q-4.068-.58-8.116-1c4.586-.279,9.168-.648,13.743-.883" transform="translate(0.001 0.001)" fill="#161926" fill-rule="evenodd"/>
</svg>
