<svg xmlns="http://www.w3.org/2000/svg" width="2400" height="190" viewBox="0 0 2400 190">
  <path fill="#161926" fill-rule="evenodd" d="M2400 0c-1 .3-12.4 2.7-25.8 6-12.7 3.2-26.7-1.6-41.3 7.8-3.7 2.3-11.3 2.4-16 3.6-5 1.2-25.1 14.4-30.6 14.8-42.7 2.8-49.2 10.2-70.4 14-13.4-5.3-21.7 3.6-21.7 3.6s-20-.7-57 12.3c-10.4-2.1-21-2.8-31.6-4-1.4-1.7-3.6 0-5-1.3h-1.3l-.3.1h-.1c-3.8-2.2-7-5.3-10.6-7.5-4-2.3-7.7-5.7-13-5.1-.4-.8-1.5-.9-2.5-1-5.1.6-10.2 1-15.3-.5-9.8-1.3-19.2 1.3-28.8 2.5-4.2 1.3-8.7 1-12.7 3.2l-.2 1.1-.2-.3c-4.4-2-8.3-.6-12.2 1.5l-1 1.1-23 4.9c-2.6-1.7-5.3-.7-7.9-.1-18.6 4.6-37.2 7-55.5-1.5-1.7-.9-3.8-.8-5.3.3-4 0-7.9.6-11.7 1.8h-.6l-1.8-.3c-3.7-.2-7.1 1.2-10.6 2.2-2.5 1-5.2 1.4-7.7 2.2a8 8 0 0 0-1.7.7c-.2 0-.3.2-.5.4l-1.3.1c-6.2 1.4-12.6 2.4-18.6 4.5-1.3.8-2.6 1.3-4 1.6-13 2-25.7 4.8-38.7 6-2.7.1-5.4.8-7.8 2-5.1 2.5-10.7 3.3-16.2 4.2a198.5 198.5 0 0 1-35.3 2.9c-2.5.3-4.3 1.5-4.7 4.2a3.9 3.9 0 0 1-3 3.5c-6.2 1.8-11.2 6.2-17.4 8.2l-3.2-.7c-5-1-10.3.6-15.2-1.3l-3.7-.5c-15.6-2-31.3-2.8-46.7-6-7.7-1.6-15.6-2.5-23.2-4.6-7.5-2-15.3-2.6-22.7-5-3.7-.4-6.9-2.5-10.6-.6-.4-1-1.5-1-2.5-1-5 .6-10 1-13.9-3a5.4 5.4 0 0 0-3.8-2c-11.4-1.5-22.3-5.3-33.7-6.5-3.6 3.7-8 3.1-12.2 1.8-2.8-1-1.7-1-4.6-1.3-1.5-.2-2.2-1.1-2-1.8.1-1.7-.8-1.4-1-2.4-2.5-3.3-6.6-2.7-9.8-4-.9-.3-1.7-.4-2.6-.5l-4.2-.4c-.5 0-1 .3-1.4.8l-.4.2.4-.7c-2.8-2.1-6.2-2.3-9.5-3-1.7-.5-3.4-.8-5.2-.9-9.1.8-18.3-.4-27.4 0-29 .5-58-.6-87.1-1.3-2.3-.2-4.6 0-6.8 0-3.3 0-6.5-.4-9.8.4-7 2.3-14.6 2.8-21.8 5-4.6 1.3-9.3 1.6-14 2.5-4 1.5-8.4.4-12.5 1.2-2.6 1-5.3.8-8 1-7.2.1-14.3-2.3-21.6-1.4h-7.9c-9.9.2-19.8-.2-29.7.3-2.7.7-5.5 1.2-8.3 1.4-4.2 1.3-8.8 1-12.8 3-.6.3-1 .8-1.5 1.3-2.1 2.3-5.3 3.3-7.2 5.9-1.4 1.9-3 1.6-5 .5a23.5 23.5 0 0 0-19.9-1 32.9 32.9 0 0 1-20 1.8 6 6 0 0 0-3 0c-13 3.7-25-1.8-37.4-3.3-5.6-.7-11.5-1-17-3.8-3-1.5-8.3-.5-8.7 3.3-.6 5.5-3.7 5.2-7.2 5.5-3.3.1-6.6 1-9.5 2.5-3.7 2-8 2.9-12.1 2.5-9.8-1-19.5.3-29.3 0-12.6-.4-25 .3-36.5 6a8.7 8.7 0 0 1-8.9-.7c-8-5-21.8-3.4-29.3 3.1-.2.3 0 .8 0 1.2.3 1.1-8.8 7-9.7 11-1 4.7-11.2 9.6-16.3 10.4-2.1.4-6-.2-7.6 2-3 4.3-7.2 4.3-11.6 4.6-5.6.5-11.1 1.3-16.6-.9-2-.7-4.2-.6-6.2.2-6.8 2.6-12.7.8-19-2.4-6.4-3.2-13.4-6.3-20.7-1.4-1.6 1.1-3.7.9-5.4.2a99 99 0 0 0-33.3-4 18 18 0 0 1-13.2-4.7 56 56 0 0 0-32.1-13.4c-6.4.1-12.5 2.2-18.8 2.8-1.6 0-3 1-3.6 2.4-3.2-2.3-6.8-1.4-10.3-1a33.3 33.3 0 0 1-17.1 0c-8.4 0-16.8-3.5-25.3-.6l-.6.8c-4.8-2-10-1-14.9-2.4-6.5-.2-12.4-3.2-18.7-3.9-.8-2-2.5-2.7-4.2-3.3-6-2-12-4.5-17.7-7.4-1.4-.7-3-1.4-4.7-.7v.1l-6-3.5a170 170 0 0 0-28.5-18.4c-.4-.3-1.1 0-1.7.2l-18.7-16.6c-5-7.4-12.6-10.3-20.7-12.6h-.3c-.5-1.8-2.3-2.3-3.8-3-5.3-2.4-10.7-4.3-15.1-8.3-.8-.7-1.8-1-2.8-.7-.7-2.5-3-3.5-5.1-4.8C536.1 7.8 525.5 1 512.7 0c-4.1 0-8.3-.3-12.4.1-3.4.3-7.1.3-9 4.2-18 6.8-37.2 10.7-53.7 21.5-2.7 3.2-7.5 3.6-10.1 7-13.3 6.7-24.4 16.4-36.2 25.2l-4.4 5-.8.1c-2.6.9-5.4 1.6-6 5l-1.2 1.1c-3.2 4.3-8.6 6.4-11.4 11.1-8.9 5.5-16.7 12.9-27.3 15.1-.4-.6-1-1.1-1.7-1.4-8-1.5-16-.5-24-.7-4.1 0-8.3-.2-12 2-1 2.9-.4.4-2 1.4-6.3 1.2-8.1 2.7-14.2 4.8-.7.2-4.9.3-5.5.5-30.4 10.7-104.7-22.5-128.7-14.8-11.2-5.7-22.2-4.8-33.4-7.3-5.6-1.3-20.4-6.2-27.3 2.3-10.5-2.7-25-7.6-35.1-4.9-31.8-13.6-52-32.7-56.3-31V190h2400" data-name="3"/>
</svg>
