<?xml version="1.0" encoding="UTF-8" standalone="no"?>
<svg
   width="512"
   height="512"
   viewBox="0 0 512 512"
   version="1.1"
   id="svg1"
   xmlns="http://www.w3.org/2000/svg"
   xmlns:svg="http://www.w3.org/2000/svg">
  <g
     id="layer1"
     transform="translate(256 256) scale(1.14 1.14) translate(-256 -256)">
    <path
       id="stairs"
       stroke="none"
       d="m 336,144 v 32 48 h -48 -32 a 16,16 135 0 0 -16,16 l 0,32 v 48 h -48 -32 a 16,16 135 0 0 -16,16 v 32 48 H 64 a 16,16 135 0 0 -16,16 v 16 a 16,16 45 0 0 16,16 l 112,0 a 16,16 135 0 0 16,-16 v -80 h 80 a 16,16 135 0 0 16,-16 v -32 -48 h 80 a 16,16 135 0 0 16,-16 v -32 -48 h 80 a 16,16 135 0 0 16,-16 l 0,-16 a 16,16 45 0 0 -16,-16 h -80 -32 a 16,16 135 0 0 -16,16 z" />
    <path
       id="arrow"
       stroke="none"
       d="m 80,80 v 16 a 16,16 45 0 0 16,16 h 46.05859 l -83.71559,83.71559 a 16,16 90 0 0 0,22.62742 l 11.31398,11.31398 a 16,16 180 0 0 22.62742,0 L 176,145.94141 V 192 a 16,16 45 0 0 16,16 h 16 a 16,16 135 0 0 16,-16 L 224,64 H 96 A 16,16 135 0 0 80,80 Z"
       transform="rotate(180,152,144)" />
  </g>
</svg>
