<?xml version="1.0" encoding="UTF-8" standalone="no"?>
<svg
   width="512"
   height="512"
   viewBox="0 0 512 512"
   version="1.1"
   id="icosahedron"
   xmlns="http://www.w3.org/2000/svg"
   xmlns:svg="http://www.w3.org/2000/svg">
  <path
     id="path"
     d="M 203.35118,30.372555 67.361709,108.88526 a 14.258112,14.258112 90.274551 0 0 -0.118008,24.62695 l 17.362202,10.24707 A 29.205551,29.205551 170.64264 0 0 121.5799,137.66653 L 208.56463,36.667451 a 4.1451746,4.1451746 50.368355 0 0 -5.21345,-6.294896 z m 100.08419,6.294896 86.98473,100.999079 a 29.205551,29.205551 9.3573648 0 0 36.974,6.09275 l 17.3622,-10.24707 a 14.258111,14.258111 89.72545 0 0 -0.11801,-24.62695 L 308.64882,30.372555 a 4.1451747,4.1451747 129.63164 0 0 -5.21345,6.294896 z m -63.37445,0.203298 -89.76637,104.231161 a 11.199188,11.199188 65.36791 0 0 8.48592,18.50747 l 194.43906,0 a 11.199188,11.199188 114.63209 0 0 8.48592,-18.50747 L 271.93908,36.870749 a 21.035394,21.035394 0 0 0 -31.87816,0 z M 34.275391,166.34688 v 156.73007 a 4.1280888,4.1280888 9.5929524 0 0 8.026892,1.35663 L 85.594202,200.01759 A 29.822543,29.822543 69.868044 0 0 72.58667,164.53417 L 55.309815,154.33693 a 13.945849,13.945849 150.27509 0 0 -21.034424,12.00995 z m 422.414799,-12.00995 -17.27686,10.19724 a 29.822544,29.822544 110.13196 0 0 -13.00753,35.48342 l 43.29192,124.41599 a 4.1280886,4.1280886 170.40705 0 0 8.02689,-1.35663 V 166.34688 A 13.945849,13.945849 29.724908 0 0 456.69019,154.33693 Z M 141.1813,204.76202 243.78745,382.48017 a 14.101852,14.101852 180 0 0 24.4251,0 L 370.8187,204.76202 a 14.101742,14.101742 60.000065 0 0 -12.21245,-21.15264 h -205.2125 a 14.101742,14.101742 119.99994 0 0 -12.21245,21.15264 z m -38.30775,18.62277 -44.696321,128.45308 a 21.211238,21.211238 60.157582 0 0 15.938817,27.78302 l 134.320644,26.42424 a 11.097694,11.097694 125.56445 0 0 11.75297,-16.43792 L 123.11307,221.46897 a 11.179095,11.179095 174.59264 0 0 -20.23952,1.91582 z m 286.01338,-1.91582 -97.07659,168.13824 a 11.097694,11.097694 54.43555 0 0 11.75297,16.43792 l 134.32065,-26.42424 a 21.211238,21.211238 119.84242 0 0 15.93881,-27.78302 L 409.12645,223.38479 a 11.179095,11.179095 5.407362 0 0 -20.23952,-1.91582 z M 87.562738,414.7771 222.84742,492.88501 A 14.101664,14.101664 150.0002 0 0 244,480.67266 V 461.92891 A 29.698659,29.698659 50.565177 0 0 220.03442,432.78886 L 90.375732,407.2795 a 4.0588734,4.0588734 110.56538 0 0 -2.812994,7.4976 z M 421.62426,407.2795 291.96558,432.78886 A 29.698659,29.698659 129.43482 0 0 268,461.92891 v 18.74375 a 14.101664,14.101664 29.999798 0 0 21.15258,12.21235 L 424.43726,414.7771 a 4.0588735,4.0588735 69.434621 0 0 -2.813,-7.4976 z" />
</svg>
