<svg xmlns="http://www.w3.org/2000/svg" width="234.999677" height="169.99999" viewBox="0 0 62.176998 44.979164">
  <g style="fill:#1d2233;fill-opacity:1">
    <path d="M27.78125 52.916668a6.614582 6.614582 44.999997 0 0 6.614582 6.614582h4.632547a1.982039 1.982039 45 0 1 1.982038 1.982039v.0047A1.982039 1.982039 135 0 1 39.028379 63.5H27.781253a6.614586 6.614586 135 0 0-6.614586 6.614586 6.614584 6.614584 44.999982 0 0 6.614586 6.614581h31.749999A3.968748 3.968748 135 0 0 63.5 72.760419a3.856989 3.856989 136.68521 0 1 3.968748-3.741893h10.356478a5.518524 5.518524 135 0 0 5.518524-5.518524 5.406285 5.406285 43.797802 0 0-5.518524-5.291668 3.85699 3.85699 46.685207 0 1-3.741895-3.968749 7.9375 7.9375 45.000001 0 0-7.9375-7.9375l-31.749996-.000002a6.614585 6.614585 135 0 0-6.614585 6.614585z" style="fill:#1d2233;fill-opacity:1;stroke-width:.602385;stroke-linejoin:round;paint-order:stroke fill markers" transform="translate(-21.166666 -35.718753)"/>
    <path d="M48.947913 34.395836h17.859375a3.968749 3.968749 45 0 1 3.968749 3.968749v.000003a3.968749 3.968749 135 0 1-3.968749 3.968749H48.947913a3.968749 3.968749 45 0 1-3.968749-3.968749v-.000003a3.968749 3.968749 135 0 1 3.968749-3.968749z" style="fill:#1d2233;fill-opacity:1;stroke-width:.530295;stroke-linejoin:round;paint-order:stroke fill markers" transform="matrix(1.0256411 0 0 1 -23.642898 -34.395836)"/>
  </g>
  <path d="m53.378969 44.979168-15.0657 5.71465a.519509.519509 0 0 0-.32089.47997v1.03904a.519509.519509 0 0 0 .51947.51956h1.5586v.77921c0 .43035.34886.7793.77921.7793h25.45596c.43035 0 .77921-.34895.77921-.7793v-.77921h1.5586a.519509.519509 0 0 0 .51947-.51956v-1.03904a.519509.519509 0 0 0-.32089-.47997l-15.06569-5.71465a.519249.519249 0 0 0-.39735 0zm-10.1915 10.35077v12.46815h-2.33781c-.43035 0-.77921.34895-.77921.7793v1.29877h27.01438v-1.29877c0-.43035-.34886-.7793-.77921-.7793h-2.33781v-12.46815h-4.15605v12.46815h-4.15605v-12.46815h-4.15614v12.46815h-4.15605v-12.46815zm-3.63658 15.58525c-.86076 0-1.55851.69775-1.55851 1.55851v1.03904a.519509.519509 0 0 0 .51947.51947h30.13158a.519509.519509 0 0 0 .51947-.51947v-1.03904c0-.86076-.69775-1.55851-1.55851-1.55851z" style="fill:none;fill-opacity:1;stroke:#0f1119;stroke-width:.52916667;stroke-miterlimit:4;stroke-dasharray:1.05833333,1.05833333;stroke-dashoffset:0;stroke-opacity:1;stroke-linecap:round" transform="translate(-22.489582 -34.395836)"/>
  <path d="M-2.53235 95.328323h1.322917v10.583333H-2.53235z" style="fill:#303753;fill-opacity:1;stroke-width:.600075;stroke-linejoin:round;paint-order:stroke fill markers" transform="rotate(-45 -52.764238 9.949409)"/>
  <path d="M60.854165 56.885419a6.614583 6.614583 0 0 0-.941544.06718 6.614583 6.614583 0 0 0-.921908.200504 6.614583 6.614583 0 0 0-.884184.330213 6.614583 6.614583 0 0 0-.828373.452168 6.614583 6.614583 0 0 0-.755509.565341 6.614583 6.614583 0 0 0-.66766.667659 6.614583 6.614583 0 0 0-.56534.75551 6.614583 6.614583 0 0 0-.452169.828373 6.614583 6.614583 0 0 0-.330212.884184 6.614583 6.614583 0 0 0-.200505.921907 6.614583 6.614583 0 0 0-.06718.941545 6.614583 6.614583 0 0 0 .06718.941544 6.614583 6.614583 0 0 0 .200505.921908 6.614583 6.614583 0 0 0 .330212.884184 6.614583 6.614583 0 0 0 .452169.828373 6.614583 6.614583 0 0 0 .56534.755509 6.614583 6.614583 0 0 0 .66766.66766 6.614583 6.614583 0 0 0 .755509.56534 6.614583 6.614583 0 0 0 .828373.452169 6.614583 6.614583 0 0 0 .884184.330212 6.614583 6.614583 0 0 0 .921908.200505 6.614583 6.614583 0 0 0 .941544.06718 6.614583 6.614583 0 0 0 .941545-.06718 6.614583 6.614583 0 0 0 .921907-.200505 6.614583 6.614583 0 0 0 .884184-.330212 6.614583 6.614583 0 0 0 .828373-.452169 6.614583 6.614583 0 0 0 .75551-.56534 6.614583 6.614583 0 0 0 .667659-.66766 6.614583 6.614583 0 0 0 .565341-.755509 6.614583 6.614583 0 0 0 .452168-.828373 6.614583 6.614583 0 0 0 .330213-.884184 6.614583 6.614583 0 0 0 .200504-.921908 6.614583 6.614583 0 0 0 .06718-.941544 6.614583 6.614583 0 0 0-.0078-.324528 6.614583 6.614583 0 0 0-.02429-.324012 6.614583 6.614583 0 0 0-.03979-.321944 6.614583 6.614583 0 0 0-.05529-.319877 6.614583 6.614583 0 0 0-.07131-.316776 6.614583 6.614583 0 0 0-.0863-.31316 6.614583 6.614583 0 0 0-.101803-.307991 6.614583 6.614583 0 0 0-.116789-.302824 6.614583 6.614583 0 0 0-.131775-.297139 6.614583 6.614583 0 0 0-.145727-.289905 6.614583 6.614583 0 0 0-.160197-.28267 6.614583 6.614583 0 0 0-.173633-.273885 6.614583 6.614583 0 0 0-.187069-.265617 6.614583 6.614583 0 0 0-.199471-.255799 6.614583 6.614583 0 0 0-.21239-.245979 6.614583 6.614583 0 0 0-.223759-.235128 6.614583 6.614583 0 0 0-.235128-.223759 6.614583 6.614583 0 0 0-.245979-.21239 6.614583 6.614583 0 0 0-.255799-.199471 6.614583 6.614583 0 0 0-.265617-.187069 6.614583 6.614583 0 0 0-.273885-.173633 6.614583 6.614583 0 0 0-.28267-.160197 6.614583 6.614583 0 0 0-.289905-.145727 6.614583 6.614583 0 0 0-.297139-.131775 6.614583 6.614583 0 0 0-.302824-.116789 6.614583 6.614583 0 0 0-.307991-.101803 6.614583 6.614583 0 0 0-.31316-.0863 6.614583 6.614583 0 0 0-.316776-.07131 6.614583 6.614583 0 0 0-.319877-.05529 6.614583 6.614583 0 0 0-.321944-.03979 6.614583 6.614583 0 0 0-.324012-.02429 6.614583 6.614583 0 0 0-.324528-.0078z" style="fill:#93969f;fill-opacity:.501961;stroke-width:.600075;stroke-linejoin:round;paint-order:stroke fill markers" transform="translate(-22.489582 -34.395836)"/>
  <path d="M60.854165 55.562503a7.9375 7.9375 0 0 0-7.9375 7.9375 7.9375 7.9375 0 0 0 7.9375 7.9375 7.9375 7.9375 0 0 0 7.9375-7.9375 7.9375 7.9375 0 0 0-7.9375-7.9375zm0 1.322916a6.614583 6.614583 0 0 1 .324528.0078 6.614583 6.614583 0 0 1 .324012.02429 6.614583 6.614583 0 0 1 .321944.03979 6.614583 6.614583 0 0 1 .319877.05529 6.614583 6.614583 0 0 1 .316776.07131 6.614583 6.614583 0 0 1 .31316.0863 6.614583 6.614583 0 0 1 .307991.101803 6.614583 6.614583 0 0 1 .302824.116789 6.614583 6.614583 0 0 1 .297139.131775 6.614583 6.614583 0 0 1 .289905.145727 6.614583 6.614583 0 0 1 .28267.160197 6.614583 6.614583 0 0 1 .273885.173633 6.614583 6.614583 0 0 1 .265617.187069 6.614583 6.614583 0 0 1 .255799.199471 6.614583 6.614583 0 0 1 .245979.21239 6.614583 6.614583 0 0 1 .235128.223759 6.614583 6.614583 0 0 1 .223759.235128 6.614583 6.614583 0 0 1 .21239.245979 6.614583 6.614583 0 0 1 .199471.255799 6.614583 6.614583 0 0 1 .187069.265617 6.614583 6.614583 0 0 1 .173633.273885 6.614583 6.614583 0 0 1 .160197.28267 6.614583 6.614583 0 0 1 .145727.289905 6.614583 6.614583 0 0 1 .131775.297139 6.614583 6.614583 0 0 1 .116789.302824 6.614583 6.614583 0 0 1 .101803.307991 6.614583 6.614583 0 0 1 .0863.31316 6.614583 6.614583 0 0 1 .07131.316776 6.614583 6.614583 0 0 1 .05529.319877 6.614583 6.614583 0 0 1 .03979.321944 6.614583 6.614583 0 0 1 .02429.324012 6.614583 6.614583 0 0 1 .0078.324528 6.614583 6.614583 0 0 1-.06718.941544 6.614583 6.614583 0 0 1-.200504.921908 6.614583 6.614583 0 0 1-.330213.884184 6.614583 6.614583 0 0 1-.452168.828373 6.614583 6.614583 0 0 1-.565341.755509 6.614583 6.614583 0 0 1-.667659.66766 6.614583 6.614583 0 0 1-.75551.56534 6.614583 6.614583 0 0 1-.828373.452169 6.614583 6.614583 0 0 1-.884184.330212 6.614583 6.614583 0 0 1-.921907.200505 6.614583 6.614583 0 0 1-.941545.06718 6.614583 6.614583 0 0 1-.941544-.06718 6.614583 6.614583 0 0 1-.921908-.200505 6.614583 6.614583 0 0 1-.884184-.330212 6.614583 6.614583 0 0 1-.828373-.452169 6.614583 6.614583 0 0 1-.755509-.56534 6.614583 6.614583 0 0 1-.66766-.66766 6.614583 6.614583 0 0 1-.56534-.755509 6.614583 6.614583 0 0 1-.452169-.828373 6.614583 6.614583 0 0 1-.330212-.884184 6.614583 6.614583 0 0 1-.200505-.921908 6.614583 6.614583 0 0 1-.06718-.941544 6.614583 6.614583 0 0 1 .06718-.941545 6.614583 6.614583 0 0 1 .200505-.921907 6.614583 6.614583 0 0 1 .330212-.884184 6.614583 6.614583 0 0 1 .452169-.828373 6.614583 6.614583 0 0 1 .56534-.75551 6.614583 6.614583 0 0 1 .66766-.667659 6.614583 6.614583 0 0 1 .755509-.565341 6.614583 6.614583 0 0 1 .828373-.452168 6.614583 6.614583 0 0 1 .884184-.330213 6.614583 6.614583 0 0 1 .921908-.200504 6.614583 6.614583 0 0 1 .941544-.06718z" style="fill:#303753;fill-opacity:1;stroke-width:.600075;stroke-linejoin:round;paint-order:stroke fill markers" transform="translate(-22.489582 -34.395836)"/>
  <path d="M-3.872102 98.22155h2.131538a.918606.918606 45 0 1 .918606.918606v8.435824a1.228895 1.228895 135 0 1-1.228895 1.2289h-1.51096a1.228895 1.228895 45 0 1-1.228895-1.2289v-8.435824a.918606.918606 135 0 1 .918606-.918606z" style="fill:#303753;fill-opacity:1;stroke-width:.600075;stroke-linejoin:round;paint-order:stroke fill markers" transform="scale(.98511396 .98511401) rotate(-45 -51.62397 8.014242)"/>
  <path d="M60.35895 57.73008c-2.797587.237848-5.035293 2.473754-5.275345 5.27069-.0236.274958.202455.49923.478511.49923h.000768c.276056 0 .49712-.224485.525335-.498975.231308-2.25028 2.010528-4.03146 4.259895-4.265777.278069-.02897.505536-.25286.505536-.532497 0-.272619-.222223-.495836-.4947-.472671zm2.042052.708976-.000319.0011c-.07925.263561.0714.53986.32477.647005.42.177609.809218.413194 1.157548.696917.208329.169689.515228.171901.705305-.01818l.000689-.000689c.197687-.197687.19889-.52012-.01518-.6998-.463874-.389348-.989524-.707331-1.559693-.937315-.255154-.10292-.533865.04744-.613118.310999z" style="color:#000;fill:#fff;stroke-linejoin:round;-inkscape-stroke:none;paint-order:stroke fill markers" transform="translate(-22.489582 -34.395836)"/>
</svg>
