<svg xmlns="http://www.w3.org/2000/svg" width="305.7" height="140.7" viewBox="0 0 305.7 140.7">
  <defs>
    <linearGradient id="a" x1="0" x2=".5" y1=".1" y2=".5" gradientUnits="objectBoundingBox">
      <stop offset="0" stop-color="#1f2334"/>
      <stop offset="1" stop-color="#1f2334"/>
    </linearGradient>
  </defs>
  <path fill="url(#a)" fill-rule="evenodd" d="M305.7 106.3c-1.7-1.6-4.1-3.3-5.4-5.2a2.5 2.5 0 0 0-3.1-1.2 25 25 0 0 0-8.2 3.2c-.7.5-1.6 1.2-2.4.8-1.7-.7-3.6-.5-5.4-.9-3.4-.7-5.4-.3-8.6.9l-1.8-1.1c-3.1-2-5.7-5.3-10.2-3.9-.6.2-1.2 0-1.5-.6a4.3 4.3 0 0 0-5-3.2c-.4 0-.7-.2-1-.4a24 24 0 0 0-5.8-2.7c-1-.3-1.8-1-1.6-2.2.1-1.2 0-2.7-1.3-2.6-2.2.2-3.5-1.2-5.2-2-4.7-2.1-9.2-4.4-11.6-9.3-2.3-1-4-3-6.6-3.5-2.3 1.3-2.3-.5-3.6 1.7-2.9-2.5-3.3-4.2-6.8-6l-.7-.2c-1-.2-1.9 0-2.7.4v.1c-.5-.5-.7-1.3-.4-2-1-.6-1.6-1.9-3-1-1.5-.7-2.8-1.7-4.2-2.5-1.4-.2-3.5.6-3.9-1.3-.2-1.6-1-1.3-1.8-1.2h-2.4c-4 .4-6.5-3-10-3.7-2.5-.4-4.4-2.5-7-2.5-.6-1.5-2-1.7-3.3-2l-5.9-1.6-6.1-1h-7.7c-.3-.2-.7-.3-1-.3-.3 0-.6 0-.9.2h-.1c-1-.8-2.2-1-3.3-.7l-.3.3c-.3-.6-1-.8-1.5-.6l-2-.3-.5-.5c-.7-.3-1.4-.3-2.1-.2l-2.9-.9-.1-.4c-1.9-1.3-3.8-2.4-6.2-2.3l-.1-.2c-1.4-1.3-3.4-1.6-5-2.5-3.4-1.7-7.1-2.6-10.9-2.5-2.8.2-5.7-.1-8.5-1l-.2.2c-.8-2-2.6-2.6-4.5-2.9h-.3c-1.1-.7-2.6-1-3.4-2.3l-7.6-2.4v-.4c-2.8-2-6-2.2-9.1-2.8a3 3 0 0 0-2 .1l-.3.3c-.3-.2-.6-.2-.8.1l-.4-.4c-2.7-.9-5.5 0-8.2-.6-2.3-.4-3.6-2.7-5.8-3.1L61 21.3a3.7 3.7 0 0 0-2.1-1.9l-1-1A92 92 0 0 0 44 8.6a1 1 0 0 1-.5 0c-.5-.6-1.2-1-2-1-.9.1-1.2-.4-1.5-1-.2-.2-.4-.2-.7-.2-.4.2-1 .4-1 1-.8-1-2-1.3-2.6-2.5a.8.8 0 0 0-.9-.4l-2-.5-2-1-3.1-1c-1-.6-2-1-3.1-1-1.4-1.2-3.2 0-4.6-1a2 2 0 0 1-1.1.4V0c-3.1 0-6.3.7-9.1 2L0 7.2v133.6h305.7" data-name="3"/>
</svg>
