<svg xmlns="http://www.w3.org/2000/svg" width="1960" height="240" viewBox="0 0 1960 240">
  <defs>
    <linearGradient id="a" x1="38.1" x2="264.7" y1="86.3" y2="529.4" gradientTransform="matrix(2.80433 0 0 .3566 0 51.2)" gradientUnits="userSpaceOnUse">
      <stop offset="0" stop-color="#181c29"/>
      <stop offset="1" stop-color="#1a1e2e"/>
    </linearGradient>
  </defs>
  <path fill="url(#a)" fill-rule="evenodd" d="M1960 0c-.4-.4-19.2.6-48.4 6.2-5 1-14.6.8-20.4.7-18-.2-18.3 3.8-27.3 5.6-35 6.8-109.4 34.6-141.6 29.8-12.8-2-14.9 3.7-17.1 7-8.5 3-23.7-8.4-34.7-3.4-38.2 17.1-64.3 16.2-96.3 22.7l-53 11.3c-25 5.2-9 4.3-27.8 12.3-2.5 2.1-15.5-2.3-18-2.4-15.4 0-35.4 7.2-50.8 6.2-11.2 1.1-20.7 7-30.7 11.6-.6 3-3 2-4.9 2.5-1.6.4-2.9 1.7-3.4 3.3-.9-.2-1.7-.1-2.5.2l-2.4.2c-.8.2-1.6.6-2.2 1a37.6 37.6 0 0 1-5.4 3c-1.2.6-2.5.8-3.8.9a8.1 8.1 0 0 0-4.6 2.5l-.5.4c-5.8-.6-9.7 3.4-14.8 5.1-3.4 1.8-7 3.5-10.5 4.8-5.4 2-10.2 5.3-15.7 7-2.5 1-5 2-7.4 3.3-3.5 1.8-8 2.1-10.2 6a4.2 4.2 0 0 0-4-.6l-.7.7-27.3-11.2c-3.8-3.8-6.5-6.9-12.3-5-.2.1-.8 0-.9-.2 0-.4-.9-.1-.6-.5-2.6-2.6-5.6-2.2-8.8-1.7h-2.5l-12.3.3c-2 0-2.7-2.1-2.7-2.1a9 9 0 0 0-7.6.8c-.4 0-.8 0-1.1-.2a2.5 2.5 0 0 0-3-1.5l-.4.2-10.4-6.2c-4-4.6-9.1-6.8-15-7.4-9.5-2.5-18.4-6.7-27.5-10.2-2.7-3.1-6.4-3.6-10.1-3.6-.6 0-1.2.2-1.8.4-1 .3-2.2.6-3.3.7l-11-1c.4-3-2.2-4-4-5.4-4.5-3.4-9.7-5.4-14.4-8.4-9-6-18.9-10.6-28.7-15.2-3.7-1.8-7.5-3.6-11.9-3.1-4.3 2.8-1-3-7.3-2.2l-11-3a15 15 0 0 0-9.9-3.6c-1.8.6-3.4-1.7-2.2-.8l-3 1.1c-2.3-2.7-4.3.8-5.2-1.5-1.1-2.4-6.4-.4-6.4-4.3-8-3.7-15.8-1.4-23.5 1.2-.5.3-.9.7-1.2 1.1l-.4-.3c-10.6 2.3-20 7.8-29.9 12 0 2.4-2 3.2-3.6 4.4-5.5 4-11.5 7.3-16.6 12l-1.3-.2c-7.4 1.3-13 6.6-19.9 9-.9 1-1.6 1.9-1.2 3.3 0-.2-.2-.3-.3-.4-2.8-.7-4.7 1.2-7 2.4-4.4 3.3-9.4 6-14.2 8.8a87.3 87.3 0 0 1-49.6 13.8c-2-.2-4.2 0-6.2.6l-.2.6c-.4-2.4-2.7-2.3-4.3-2.1-3.4.3-6.4-.6-9.4-1.4a7 7 0 0 0-4.7 1l.2.9-.5-.3-7.5-1.3a6.6 6.6 0 0 0-5.5-1.6c-.8 0-1.5.4-2.2.8-2.7-1.1-5.8 0-8.6-.4a9.2 9.2 0 0 0-5.4-1.8c-2 0-4.1 0-6.2.3l-1.8.3c-5.2.1-10.2 2-15.4 2.4-1.3-.8-2.3-.8-2.4.7h-.2c-6-.7-10.6 3-15.4 5.6-.4.3-.8.8-1 1.3l-22.2 5c.1-.9.6-1.6-.6-.9-1.4-.7-3-1-4.6-1a26 26 0 0 0-5 .6c-2.4.7-4.9.9-7.3.6-5.2-.2-10.3-.4-15.5 0-2 0-4.5-.2-5.6 2.1l-.3-.2c-3.3-1.2-7 0-10.3-1.4-3-.5-6.1-1-9.1.5l-.8.7c-2-2.1-5-1.4-7.4-2.4-1.8-.1-3.5-.1-4.8 1.4-.2-.4-.6-.8-1-1.1-7-1.5-14-4.9-21.6-2.5v.1-.7a7 7 0 0 0-4.2-1.5c-2.4-.7-4.8-1-7-1.9-2.2-.4-4.3-1.8-6.3.2l-.3.3.4-.8a4.6 4.6 0 0 0-5-1.6l-.5.9c-3 0-5.6-1.8-8.4-2.5l-8.4-2.4c-.5-1.2-1.5-2.1-2.7-2.5-2.1-.5-4.3-1.7-6.3 0l-.3.3.5-.9c-2.4-2.6-5.5-3-8.7-3l-.7.5c-.5-.5-1.2-.8-1.9-.8a3 3 0 0 0-2.5 1c-4.3-6.4-10.8-7-17.7-6.3l-.3.2c-.7-1.6-1.8-2.4-3.8-2l-.8.5-38.8-11.2c-.8-1.2-2-2.1-3.5-2.5-9.7-2.5-19.4-5.3-29.6-6.1l-3.4.8c-7.4-1.6-15-1-22.4-1a21.3 21.3 0 0 0-20 7.6l-7.4 2.8a3 3 0 0 0-.3-.7c-5.4-2-11.2-2.2-16.6-4.7-11.6-5.2-22.7-11.2-34.2-16.6-2.8-1.3-5.5-3-8.8-2.6l-.4.2c-.1-.8-.7-1.5-1.4-1.8-11.1-5.1-21.8-12-35-10.4-2 .6-4 1.4-6 2.3a6 6 0 0 0-2.5 2.5c-8 5.6-16 11.2-22.3 18.8-2.4-.5-3.6 1.3-5 2.8a64.1 64.1 0 0 1-12.1 10.2c-3.2 2.1-6.5 4.2-9.7 6.5-2.4 1.7-5.6 2.8-6.3 6.2-2.8-.3-4.4 1.7-6.2 3.4-4.4 3.8-7.3 8.9-11.6 12.8l-.4.4a5 5 0 0 0-4.2 0 3.7 3.7 0 0 0-2.4 3.5c0 1 .6 1.8 1.5 2.1-5.7 3.6-10 9-15.6 12.7-2.8 2.1-5.6 4.4-8.6 6.3l-6.7 4.8c-3.4 2.5-7.4 3.8-10.6 6.6-.4.3-.7.7-.9 1.2h-.8c-6.1 2.1-12.1 4.7-18 7.3-.6.5-1 1.1-1.3 1.8-1-.5-2-.2-2.7.6a4 4 0 0 0-1.3 1c-1.3 0-2.6.3-3.8.9-.4-.2-.8-.4-1.1-.4-1-.3-1.8-.3-2.7-.1-5.5.8-10.7 3.2-16.4 3.6-3.6.8-7.4 1-10.6 3 .3.8.5 1.5.6 2.3-.4-.4-.7-1-.8-1.5-1-1.3-2.2-1.4-3.6-1.4-2.2.7-4.6.7-6.8 1.2-5.2 1.6-11 1-15.9 4.2l-.1.7c-2.4-1.7-4.8-.3-7.3.1-3.6 1.6-8 2-10 6.2l-.6-.5c-2.6-.1-4.8 1.1-6.9 2.4-6.3 3.7-12.9 7.1-19.6 10.2-7 3-14.4 3.4-22 3.5-19.8.3-16 10.9-35.4 10.5-16.8 11.7-31 20-33.4 23.2h1960M833.4 121.6v.1" data-name="2" style="fill:url(#a)"/>
</svg>
