<?xml version="1.0" encoding="UTF-8" standalone="no"?>
<svg
   width="512"
   height="512"
   viewBox="0 0 512 512"
   version="1.1"
   id="mucklet"
	style="background:#161926"
   xmlns="http://www.w3.org/2000/svg"
   xmlns:svg="http://www.w3.org/2000/svg">
  <path
     id="yellow"
     style="fill:#4a9fc3;stroke:none;"
     d="m 310.73243,81.066407 a 4.4022929,4.4022929 0 0 0 -3.58204,7.267577 l 55.13868,64.021486 a 31.018148,31.018148 0 0 0 39.26953,6.47265 15.081177,15.081177 0 0 0 -0.31055,-26.04687 L 312.6875,81.648437 a 4.4022929,4.4022929 0 0 0 -1.95507,-0.58203 z m 111.03124,98.439453 a 14.811704,14.811704 0 0 0 -7.42187,2.05664 31.477411,31.477411 0 0 0 -13.53711,37.52149 l 27.35351,78.61328 a 4.3842692,4.3842692 0 0 0 8.52539,-1.44141 v -101.9375 a 14.811704,14.811704 0 0 0 -14.91992,-14.8125 z M 370,236.53125 a 11.872876,11.872876 0 0 0 -9.46875,5.90821 l -65.92188,114.17968 a 11.786364,11.786364 0 0 0 12.48243,17.45898 l 86.89062,-17.0957 a 22.527889,22.527889 0 0 0 16.92773,-29.50586 l -28.88281,-83.0039 A 11.872876,11.872876 0 0 0 370,236.53125 Z m 7.82617,150.47461 a 4.3108067,4.3108067 0 0 0 -1.50781,0.0274 l -81.82618,16.0996 a 31.54168,31.54168 0 0 0 -25.45312,30.94727 14.599827,14.599827 0 0 0 22.46485,11.60937 l 87.80078,-50.69144 a 4.3108067,4.3108067 0 0 0 -1.47852,-7.99218 z m -242.14453,0.0274 a 4.3108067,4.3108067 0 0 0 -2.98828,7.96484 l 87.80273,50.6914 a 14.976945,14.976945 0 0 0 22.46485,-12.9707 30.721569,30.721569 0 0 0 -25.45312,-29.58594 z" />
  <path
     id="blue"
     style="fill:#c1a657;stroke:none;"
     d="m 253.26172,80.960938 a 22.340666,22.340666 0 0 0 -14.18946,7.59375 l -58.16211,67.535152 a 11.894347,11.894347 0 0 0 9.01173,19.65625 h 132.15429 a 11.894347,11.894347 0 0 0 9.01368,-19.65625 L 272.92774,88.554688 a 22.340666,22.340666 0 0 0 -19.66602,-7.59375 z M 200.75586,81.125 a 4.4022928,4.4022928 0 0 0 -1.44336,0.523437 L 110.75,132.78125 a 15.143229,15.143229 0 0 0 -0.125,26.15429 30.890452,30.890452 0 0 0 39.08593,-6.58007 L 204.84961,88.333984 A 4.4022928,4.4022928 0 0 0 200.75586,81.125 Z M 90.841797,179.45898 a 14.720964,14.720964 0 0 0 -15.525391,14.85938 v 101.9375 a 4.3842694,4.3842694 0 0 0 8.525391,1.44141 l 27.353513,-78.61328 a 31.672906,31.672906 0 0 0 -13.814451,-37.68555 14.720964,14.720964 0 0 0 -6.539062,-1.93946 z m 93.226563,22.36328 a 14.97699,14.97699 0 0 0 -12.9707,22.4668 l 71.93164,124.58789 a 14.976992,14.976992 0 0 0 25.9414,0 l 71.93164,-124.58789 a 14.97699,14.97699 0 0 0 -12.9707,-22.4668 z M 142,236.53125 a 11.872876,11.872876 0 0 0 -12.02734,7.94141 l -28.88282,83.0039 a 22.527888,22.527888 0 0 0 16.92774,29.50586 l 86.89062,17.0957 a 11.786364,11.786364 0 0 0 12.48243,-17.45898 L 151.46679,242.43946 A 11.872876,11.872876 0 0 0 142,236.53125 Z" />
</svg>
