<?xml version="1.0" encoding="UTF-8" standalone="no"?>
<svg
   width="16"
   height="16"
   viewBox="0 0 16 16"
   xmlns="http://www.w3.org/2000/svg"
   xmlns:svg="http://www.w3.org/2000/svg">
   <path
      fill="#000"
      d="M 7.8845825,0.53186031 A 0.94150691,0.94150691 0 0 0 7.2866212,0.85186781 L 4.8354494,3.6979981 A 0.50126575,0.50126575 0 0 0 5.2152709,4.5263672 H 10.784668 A 0.50126575,0.50126575 0 0 0 11.164551,3.6979981 L 8.7133788,0.85186781 A 0.94150691,0.94150691 0 0 0 7.8845825,0.53186031 Z M 10.30658,0.536255 a 0.18552667,0.18552667 0 0 0 -0.15094,0.30633531 l 2.32373,2.69805909 a 1.3072037,1.3072037 0 0 0 1.654968,0.2727662 0.63556888,0.63556888 0 0 0 -0.01312,-1.0977175 L 10.388977,0.56079094 A 0.18552667,0.18552667 0 0 0 10.30658,0.536255 Z M 5.6718141,0.538758 a 0.18552666,0.18552666 0 0 0 -0.060791,0.0220334 l -3.7323,2.1549074 A 0.63818394,0.63818394 0 0 0 1.8734131,3.8179328 1.3018222,1.3018222 0 0 0 3.52063,3.54065 L 5.8443603,0.84259094 A 0.18552666,0.18552666 0 0 0 5.6718141,0.538758 Z M 1.0397337,4.6828619 A 0.62038837,0.62038837 0 0 0 0.38543687,5.3090825 V 9.6050416 A 0.1847671,0.1847671 0 0 0 0.74469,9.6657716 L 1.8974609,6.3527831 A 1.3347973,1.3347973 0 0 0 1.3153075,4.7645875 0.62038837,0.62038837 0 0 0 1.0397337,4.6828612 Z M 14.98584,4.684815 a 0.62421244,0.62421244 0 0 0 -0.312805,0.08667 1.3265585,1.3265585 0 0 0 -0.570496,1.5812988 l 1.152771,3.3129884 a 0.18476709,0.18476709 0 0 0 0.359253,-0.06073 V 5.3090819 A 0.62421244,0.62421244 0 0 0 14.98584,4.6848144 Z M 4.9685669,5.6253059 a 0.63117812,0.63117812 0 0 0 -0.546631,0.9468382 l 3.0314332,5.2505489 a 0.63117822,0.63117822 0 0 0 1.0932618,0 L 11.578064,6.5721441 A 0.63117812,0.63117812 0 0 0 11.031433,5.6253059 Z M 3.1956788,7.0880744 A 0.50036088,0.50036088 0 0 0 2.6887819,7.42273 l -1.2171632,3.498047 a 0.94939706,0.94939706 0 0 0 0.7133788,1.243469 l 3.6618653,0.720459 A 0.49671497,0.49671497 0 0 0 6.3728637,12.148926 L 3.5946656,7.3370362 A 0.50036088,0.50036088 0 0 0 3.1956788,7.0880737 Z m 9.6086422,0 A 0.50036088,0.50036088 0 0 0 12.405273,7.3370369 L 9.6271363,12.148926 a 0.49671497,0.49671497 0 0 0 0.5260617,0.735779 l 3.661805,-0.720459 a 0.94939709,0.94939709 0 0 0 0.71344,-1.24347 L 13.311218,7.4227294 a 0.50036088,0.50036088 0 0 0 -0.506897,-0.334655 z m 0.329834,6.3414916 a 0.18167114,0.18167114 0 0 0 -0.06354,0.0012 l -3.4484255,0.678467 a 1.329267,1.329267 0 0 0 -1.0726931,1.304199 0.61528325,0.61528325 0 0 0 0.9467775,0.489258 l 3.7001951,-2.136292 a 0.18167114,0.18167114 0 0 0 -0.06232,-0.336792 z m -10.2047728,0.0012 A 0.18167114,0.18167114 0 0 0 2.8034669,13.766399 L 6.5037841,15.90269 A 0.63117622,0.63117622 0 0 0 7.4505006,15.356018 1.2947049,1.2947049 0 0 0 6.3778075,14.109192 Z" />
</svg>
